<?xml version="1.0" encoding="UTF-8"?>
<svg xmlns="http://www.w3.org/2000/svg" xmlns:xlink="http://www.w3.org/1999/xlink" viewBox="0 0 591.26 437.94">
  <defs>
    <style>
      .cls-1 {
        fill: #020230;
        opacity: .6;
      }

      .cls-1, .cls-2, .cls-3, .cls-4, .cls-5, .cls-6, .cls-7, .cls-8, .cls-9, .cls-10, .cls-11, .cls-12, .cls-13, .cls-14, .cls-15, .cls-16, .cls-17, .cls-18, .cls-19, .cls-20, .cls-21, .cls-22, .cls-23, .cls-24, .cls-25, .cls-26, .cls-27 {
        stroke-width: 0px;
      }

      .cls-1, .cls-5, .cls-28, .cls-8 {
        isolation: isolate;
      }

      .cls-2 {
        fill: #e8975b;
      }

      .cls-3 {
        fill: url(#linear-gradient);
      }

      .cls-29, .cls-5, .cls-30 {
        opacity: .5;
      }

      .cls-4 {
        fill: url(#linear-gradient-6);
      }

      .cls-5, .cls-8, .cls-21 {
        fill: #06033e;
      }

      .cls-6 {
        fill: #0c0a78;
      }

      .cls-7 {
        fill: url(#linear-gradient-11);
      }

      .cls-8, .cls-31 {
        opacity: .4;
      }

      .cls-9 {
        fill: url(#linear-gradient-5);
      }

      .cls-10 {
        fill: url(#linear-gradient-2);
      }

      .cls-11 {
        fill: url(#linear-gradient-7);
      }

      .cls-12 {
        fill: url(#radial-gradient-2);
      }

      .cls-13 {
        fill: url(#radial-gradient-7);
      }

      .cls-14 {
        fill: url(#linear-gradient-3);
      }

      .cls-15 {
        fill: url(#radial-gradient-5);
      }

      .cls-16 {
        fill: url(#linear-gradient-9);
      }

      .cls-17 {
        fill: url(#radial-gradient);
      }

      .cls-18 {
        fill: #0fd5e2;
      }

      .cls-19 {
        fill: url(#linear-gradient-8);
      }

      .cls-20 {
        fill: #fff;
      }

      .cls-22 {
        fill: url(#radial-gradient-6);
      }

      .cls-23 {
        fill: url(#linear-gradient-10);
      }

      .cls-24 {
        fill: url(#radial-gradient-3);
      }

      .cls-25 {
        fill: #f8359e;
      }

      .cls-26 {
        fill: url(#linear-gradient-4);
      }

      .cls-30 {
        mix-blend-mode: hard-light;
      }

      .cls-27 {
        fill: url(#radial-gradient-4);
      }
    </style>
    <linearGradient id="linear-gradient" x1="547.28" y1="79.9" x2="591.26" y2="79.9" gradientTransform="translate(0 443.12) scale(1 -1)" gradientUnits="userSpaceOnUse">
      <stop offset="0" stop-color="#e39a65"/>
      <stop offset="1" stop-color="#e95f8d"/>
    </linearGradient>
    <linearGradient id="linear-gradient-2" x1="487.07" y1="140.17" x2="560.94" y2="140.17" gradientTransform="translate(0 443.12) scale(1 -1)" gradientUnits="userSpaceOnUse">
      <stop offset="0" stop-color="#e39a65"/>
      <stop offset="1" stop-color="#e95f8d"/>
    </linearGradient>
    <linearGradient id="linear-gradient-3" x1="0" y1="115.42" x2="73.86" y2="115.42" gradientTransform="translate(0 443.12) scale(1 -1)" gradientUnits="userSpaceOnUse">
      <stop offset="0" stop-color="#e39a65"/>
      <stop offset="1" stop-color="#e95f8d"/>
    </linearGradient>
    <linearGradient id="linear-gradient-4" x1="85.99" y1="120.16" x2="480.21" y2="120.16" gradientTransform="translate(0 443.12) scale(1 -1)" gradientUnits="userSpaceOnUse">
      <stop offset="0" stop-color="#e39a65"/>
      <stop offset="1" stop-color="#e95f8d"/>
    </linearGradient>
    <radialGradient id="radial-gradient" cx="303.74" cy="412.03" fx="303.74" fy="412.03" r="301.09" gradientTransform="translate(0 443.12) scale(1 -1)" gradientUnits="userSpaceOnUse">
      <stop offset="0" stop-color="#e39a65"/>
      <stop offset=".47" stop-color="#a92ffb"/>
      <stop offset=".59" stop-color="#891cfb"/>
      <stop offset=".74" stop-color="#6507fa"/>
      <stop offset=".8" stop-color="#0d0c6f"/>
    </radialGradient>
    <radialGradient id="radial-gradient-2" cx="119.59" cy="170.23" fx="119.59" fy="170.23" r="329.24" gradientTransform="translate(0 443.12) scale(1 -1)" gradientUnits="userSpaceOnUse">
      <stop offset="0" stop-color="#e39a65"/>
      <stop offset=".47" stop-color="#a92ffb"/>
      <stop offset=".57" stop-color="#891cfb"/>
      <stop offset=".68" stop-color="#6507fa"/>
      <stop offset=".74" stop-color="#0d0c6f"/>
    </radialGradient>
    <radialGradient id="radial-gradient-3" cx="149.87" cy="236.31" fx="149.87" fy="236.31" r="295.25" gradientTransform="translate(0 443.12) scale(1 -1)" gradientUnits="userSpaceOnUse">
      <stop offset="0" stop-color="#e39a65"/>
      <stop offset=".47" stop-color="#a92ffb"/>
      <stop offset=".59" stop-color="#891cfb"/>
      <stop offset=".73" stop-color="#6507fa"/>
      <stop offset="1" stop-color="#3919bb"/>
    </radialGradient>
    <radialGradient id="radial-gradient-4" cx="223.42" cy="349.22" fx="223.42" fy="349.22" r="301.15" gradientTransform="translate(0 443.12) scale(1 -1)" gradientUnits="userSpaceOnUse">
      <stop offset="0" stop-color="#e39a65"/>
      <stop offset=".47" stop-color="#a92ffb"/>
      <stop offset=".59" stop-color="#891cfb"/>
      <stop offset=".73" stop-color="#6507fa"/>
      <stop offset="1" stop-color="#3919bb"/>
    </radialGradient>
    <linearGradient id="linear-gradient-5" x1="256.52" y1="270.17" x2="497.84" y2="270.17" gradientTransform="translate(0 443.12) scale(1 -1)" gradientUnits="userSpaceOnUse">
      <stop offset="0" stop-color="#3919bb"/>
      <stop offset="1" stop-color="#6507fa"/>
    </linearGradient>
    <radialGradient id="radial-gradient-5" cx="113.48" cy="413.53" fx="113.48" fy="413.53" r="469.04" gradientTransform="translate(0 443.12) scale(1 -1)" gradientUnits="userSpaceOnUse">
      <stop offset="0" stop-color="#e39a65"/>
      <stop offset=".47" stop-color="#a92ffb"/>
      <stop offset=".59" stop-color="#891cfb"/>
      <stop offset=".73" stop-color="#6507fa"/>
      <stop offset="1" stop-color="#3919bb"/>
    </radialGradient>
    <linearGradient id="linear-gradient-6" x1="91.99" y1="237.16" x2="195.52" y2="237.16" gradientTransform="translate(0 443.12) scale(1 -1)" gradientUnits="userSpaceOnUse">
      <stop offset="0" stop-color="#e39a65"/>
      <stop offset="1" stop-color="#e95f8d"/>
    </linearGradient>
    <radialGradient id="radial-gradient-6" cx="101.17" cy="321.6" fx="101.17" fy="321.6" r="222.96" gradientTransform="translate(0 443.12) scale(1 -1)" gradientUnits="userSpaceOnUse">
      <stop offset="0" stop-color="#e39a65"/>
      <stop offset=".15" stop-color="#a92ffb"/>
      <stop offset=".41" stop-color="#3919bb"/>
      <stop offset=".93" stop-color="#3919bb"/>
    </radialGradient>
    <linearGradient id="linear-gradient-7" x1="105.12" y1="349.22" x2="185.09" y2="349.22" gradientTransform="translate(0 443.12) scale(1 -1)" gradientUnits="userSpaceOnUse">
      <stop offset="0" stop-color="#e39a65"/>
      <stop offset=".25" stop-color="#a92ffb"/>
      <stop offset=".56" stop-color="#3919bb"/>
    </linearGradient>
    <linearGradient id="linear-gradient-8" x1="112.62" y1="353.29" x2="177.59" y2="353.29" gradientTransform="translate(0 443.12) scale(1 -1)" gradientUnits="userSpaceOnUse">
      <stop offset="0" stop-color="#4f1fec"/>
      <stop offset="1" stop-color="#a92ffb"/>
    </linearGradient>
    <linearGradient id="linear-gradient-9" x1="111.08" y1="353.29" x2="176.05" y2="353.29" gradientTransform="translate(0 443.12) scale(1 -1)" gradientUnits="userSpaceOnUse">
      <stop offset="0" stop-color="#4f1fec"/>
      <stop offset="1" stop-color="#a92ffb"/>
    </linearGradient>
    <linearGradient id="linear-gradient-10" x1="112.62" y1="361.85" x2="194.54" y2="361.85" gradientTransform="translate(0 443.12) scale(1 -1)" gradientUnits="userSpaceOnUse">
      <stop offset="0" stop-color="#131060"/>
      <stop offset=".19" stop-color="#141062"/>
      <stop offset=".28" stop-color="#19106a"/>
      <stop offset=".36" stop-color="#221078"/>
      <stop offset=".42" stop-color="#2e0f8b"/>
      <stop offset=".48" stop-color="#3e0fa3"/>
      <stop offset=".54" stop-color="#510ec2"/>
      <stop offset=".58" stop-color="#680de5"/>
      <stop offset=".61" stop-color="#740df8"/>
      <stop offset=".62" stop-color="#7a14f0"/>
      <stop offset=".68" stop-color="#9b3cc3"/>
      <stop offset=".75" stop-color="#b75d9d"/>
      <stop offset=".81" stop-color="#cc7680"/>
      <stop offset=".88" stop-color="#dc886c"/>
      <stop offset=".94" stop-color="#e5935f"/>
      <stop offset="1" stop-color="#e8975b"/>
    </linearGradient>
    <radialGradient id="radial-gradient-7" cx="95.14" cy="371.85" fx="95.14" fy="371.85" r="145.85" gradientTransform="translate(0 443.12) scale(1 -1)" gradientUnits="userSpaceOnUse">
      <stop offset="0" stop-color="#e39a65"/>
      <stop offset=".25" stop-color="#a92ffb"/>
      <stop offset=".74" stop-color="#3919bb"/>
    </radialGradient>
    <linearGradient id="linear-gradient-11" x1="139.96" y1="335.41" x2="151.29" y2="335.41" gradientTransform="translate(0 443.12) scale(1 -1)" gradientUnits="userSpaceOnUse">
      <stop offset="0" stop-color="#131060"/>
      <stop offset=".19" stop-color="#141062"/>
      <stop offset=".28" stop-color="#19106a"/>
      <stop offset=".36" stop-color="#221078"/>
      <stop offset=".42" stop-color="#2e0f8b"/>
      <stop offset=".48" stop-color="#3e0fa3"/>
      <stop offset=".54" stop-color="#510ec2"/>
      <stop offset=".58" stop-color="#680de5"/>
      <stop offset=".61" stop-color="#740df8"/>
      <stop offset=".62" stop-color="#7a14f0"/>
      <stop offset=".68" stop-color="#9b3cc3"/>
      <stop offset=".75" stop-color="#b75d9d"/>
      <stop offset=".81" stop-color="#cc7680"/>
      <stop offset=".88" stop-color="#dc886c"/>
      <stop offset=".94" stop-color="#e5935f"/>
      <stop offset="1" stop-color="#e8975b"/>
    </linearGradient>
  </defs>
  <g class="cls-28">
    <g id="Square3">
      <path class="cls-3" d="M569.27,376.15c-1.62,0-3.25-.42-4.69-1.26l-15.82-9.14c-.92-.53-1.47-1.48-1.47-2.54s.55-2.01,1.47-2.54l15.82-9.14c2.89-1.67,6.49-1.67,9.39,0l15.83,9.14c.92.53,1.47,1.48,1.47,2.54s-.55,2.01-1.47,2.54l-15.82,9.14c-1.45.84-3.07,1.26-4.7,1.26ZM569.27,352.8c-1.19,0-2.38.31-3.44.92l-15.82,9.14c-.18.11-.21.28-.21.36s.03.26.21.37l15.83,9.14h0c2.12,1.22,4.76,1.22,6.88,0l15.82-9.14c.18-.11.21-.28.21-.37s-.03-.26-.21-.36l-15.83-9.14c-1.06-.61-2.25-.92-3.44-.92Z"/>
    </g>
    <g id="Square2">
      <path class="cls-10" d="M524.01,324.3c-2.64,0-5.27-.68-7.63-2.04l-27.24-15.73c-1.3-.75-2.07-2.09-2.07-3.58s.77-2.84,2.07-3.58l27.23-15.72c4.7-2.72,10.55-2.72,15.25,0l27.24,15.72c1.3.75,2.07,2.09,2.07,3.58s-.77,2.84-2.07,3.59l-27.24,15.72c-2.35,1.36-4.99,2.04-7.63,2.04ZM517.63,320.09c3.93,2.27,8.81,2.27,12.74,0l27.24-15.72c.73-.42.81-1.13.81-1.41s-.08-.99-.81-1.41l-27.24-15.72c-3.93-2.27-8.81-2.27-12.74,0l-27.23,15.72c-.73.42-.82,1.13-.82,1.41s.08.99.82,1.41l27.24,15.73Z"/>
    </g>
    <g id="Square1">
      <path class="cls-14" d="M36.93,349.04c-2.64,0-5.27-.68-7.63-2.04l-27.24-15.72c-1.3-.75-2.07-2.09-2.07-3.59s.77-2.84,2.07-3.58l27.24-15.72c4.7-2.72,10.55-2.72,15.25,0l27.24,15.73c1.3.75,2.07,2.09,2.07,3.58s-.77,2.84-2.07,3.58l-27.23,15.72c-2.35,1.36-4.99,2.04-7.63,2.04ZM36.93,308.86c-2.2,0-4.41.57-6.37,1.7l-27.24,15.72c-.73.42-.81,1.13-.81,1.41s.08.99.82,1.41l27.24,15.72h0c3.93,2.27,8.81,2.27,12.74,0l27.23-15.72c.74-.42.81-1.13.81-1.41s-.08-.99-.81-1.41l-27.24-15.73c-1.97-1.14-4.17-1.7-6.37-1.7Z"/>
    </g>
    <g id="Laptop">
      <g>
        <path class="cls-1" d="M312.74,417.64l-194.75-112.44c-2.84-1.64-2.48-4.5.8-6.39l124.99-72.17c3.28-1.89,8.24-2.1,11.07-.46l194.75,112.44c2.84,1.64,2.48,4.5-.8,6.39l-124.99,72.16c-3.28,1.89-8.24,2.1-11.07.46Z"/>
        <path class="cls-26" d="M317.2,437.94c-2.28,0-4.46-.47-6.13-1.44h0l-222.27-128.33c-1.82-1.05-2.82-2.56-2.82-4.25,0-1.95,1.36-3.85,3.72-5.22l151.51-88.77c4.16-2.4,10.26-2.63,13.9-.53l222.27,128.33c1.82,1.05,2.82,2.56,2.82,4.25,0,1.95-1.36,3.85-3.72,5.21l-151.51,88.77c-2.25,1.3-5.08,1.96-7.77,1.96ZM249.03,210.5c-2.28,0-4.7.55-6.54,1.61l-151.51,88.77c-1.55.9-2.47,2.03-2.47,3.05s.85,1.67,1.56,2.08l222.27,128.33h0c2.84,1.64,8.05,1.4,11.38-.52l151.51-88.77c1.55-.9,2.47-2.03,2.47-3.05s-.85-1.67-1.56-2.08l-222.27-128.33c-1.27-.73-3.01-1.09-4.84-1.09Z"/>
        <path class="cls-17" d="M501.34,150.12l-193.98-112c-1.33-.77-2.73-.93-3.96-.57h0s-.01,0-.02,0l-3.59,1.25,1.26.3c-.51.6-.92,1.34-1.18,2.22l-43.87,142.43c-1.09,3.53.51,7.82,3.56,9.58l193.98,112c.47.27.95.46,1.43.58l-.48,1.05,3.43-1.21h0c1.41-.56,2.56-1.82,3.12-3.63l43.87-142.43c1.08-3.53-.51-7.82-3.56-9.58Z"/>
        <path class="cls-12" d="M446.6,310.66l.07.08-191.61-110.62c-2.82-1.63-7.74-1.42-11,.46l-123.8,71.47-4.13-1.58,1.16,5.79h0c.15.87.76,1.68,1.86,2.32l193.38,111.65c2.82,1.63,7.74,1.42,11-.46l124.11-71.66c1.53-.88,2.41-1.98,2.63-3.06h0s1.18-5.63,1.18-5.63l-4.87,1.24Z"/>
        <path class="cls-24" d="M312.74,385.13l-194.75-112.44c-2.84-1.64-2.48-4.5.8-6.39l124.99-72.16c3.28-1.89,8.24-2.1,11.07-.46l194.75,112.44c2.84,1.64,2.48,4.5-.8,6.39l-124.99,72.16c-3.28,1.89-8.24,2.1-11.07.46Z"/>
        <path class="cls-20" d="M448.81,310.99l-124.99,72.16c-3.28,1.89-8.24,2.1-11.07.46l-194.75-112.44c-.97-.56-1.53-1.26-1.77-2.02-.38,1.31.17,2.61,1.77,3.54l194.75,112.44c2.84,1.64,7.8,1.43,11.07-.46l124.99-72.16c2.16-1.25,3.02-2.91,2.57-4.37-.29,1.02-1.13,2.03-2.57,2.86Z"/>
        <g class="cls-31">
          <path class="cls-21" d="M210.88,254.45l-6.57-3.8c-.53-.3-.46-.84.15-1.19l7.76-4.48c.61-.35,1.53-.39,2.06-.08l6.57,3.8c.53.3.46.84-.15,1.19l-7.76,4.48c-.61.35-1.53.39-2.06.08Z"/>
          <path class="cls-21" d="M221.04,260.31l-6.57-3.8c-.53-.3-.46-.84.15-1.19l7.76-4.48c.61-.35,1.53-.39,2.06-.08l6.57,3.8c.53.3.46.84-.15,1.19l-7.76,4.48c-.61.35-1.53.39-2.06.08Z"/>
          <path class="cls-21" d="M231.19,266.17l-6.57-3.8c-.53-.3-.46-.84.15-1.19l7.76-4.48c.61-.35,1.53-.39,2.06-.08l6.57,3.8c.53.3.46.84-.15,1.19l-7.76,4.48c-.61.35-1.53.39-2.06.08Z"/>
          <path class="cls-21" d="M245.24,261.33l-6.57-3.8c-.53-.3-.46-.84.15-1.19l6.51-3.76c.61-.35,1.53-.39,2.06-.08l6.57,3.8c.53.3.46.84-.15,1.19l-6.51,3.76c-.61.35-1.53.39-2.06.08Z"/>
          <path class="cls-21" d="M255.39,267.19l-6.57-3.8c-.53-.3-.46-.84.15-1.19l6.52-3.76c.61-.35,1.53-.39,2.06-.08l6.57,3.8c.53.3.46.84-.15,1.19l-6.52,3.76c-.61.35-1.53.39-2.06.08Z"/>
          <path class="cls-21" d="M265.54,273.06l-6.57-3.8c-.53-.3-.46-.84.15-1.19l6.52-3.76c.61-.35,1.53-.39,2.06-.08l6.57,3.8c.53.3.46.84-.15,1.19l-6.52,3.76c-.61.35-1.53.39-2.06.08Z"/>
          <path class="cls-21" d="M275.7,278.92l-6.57-3.8c-.53-.3-.46-.84.15-1.19l6.51-3.76c.61-.35,1.53-.39,2.06-.08l6.57,3.8c.53.3.46.84-.15,1.19l-6.51,3.76c-.61.35-1.53.39-2.06.08Z"/>
          <path class="cls-21" d="M285.85,284.78l-6.57-3.8c-.53-.3-.46-.84.15-1.19l6.52-3.76c.61-.35,1.53-.39,2.06-.08l6.57,3.8c.53.3.46.84-.15,1.19l-6.51,3.76c-.61.35-1.53.39-2.06.08Z"/>
          <path class="cls-21" d="M296.01,290.64l-6.57-3.8c-.53-.3-.46-.84.15-1.19l6.51-3.76c.61-.35,1.53-.39,2.06-.08l6.57,3.8c.53.3.46.84-.15,1.19l-6.51,3.76c-.61.35-1.53.39-2.06.08Z"/>
          <path class="cls-21" d="M306.16,296.51l-6.57-3.8c-.53-.3-.46-.84.15-1.19l6.51-3.76c.61-.35,1.53-.39,2.06-.08l6.57,3.8c.53.3.46.84-.15,1.19l-6.52,3.76c-.61.35-1.53.39-2.06.08Z"/>
          <path class="cls-21" d="M316.31,302.37l-6.57-3.8c-.53-.3-.46-.84.15-1.19l6.52-3.76c.61-.35,1.53-.39,2.06-.08l6.57,3.8c.53.3.46.84-.15,1.19l-6.52,3.76c-.61.35-1.53.39-2.06.08Z"/>
          <path class="cls-21" d="M326.47,308.23l-6.57-3.8c-.53-.3-.46-.84.15-1.19l6.52-3.76c.61-.35,1.53-.39,2.06-.08l6.57,3.8c.53.3.46.84-.15,1.19l-6.51,3.76c-.61.35-1.53.39-2.06.08Z"/>
          <path class="cls-21" d="M336.62,314.09l-6.57-3.8c-.53-.3-.46-.84.15-1.19l6.51-3.76c.61-.35,1.53-.39,2.06-.08l6.57,3.8c.53.3.46.84-.15,1.19l-6.52,3.76c-.61.35-1.53.39-2.06.08Z"/>
          <path class="cls-21" d="M260.2,258.56l-6.57-3.8c-.53-.3-.46-.84.15-1.19l6.51-3.76c.61-.35,1.53-.39,2.06-.08l6.57,3.8c.53.3.46.84-.15,1.19l-6.51,3.76c-.61.35-1.53.39-2.06.08Z"/>
          <path class="cls-21" d="M249.89,252.61l-6.57-3.8c-.53-.3-.46-.84.15-1.19l6.51-3.76c.61-.35,1.53-.39,2.06-.08l6.57,3.8c.53.3.46.84-.15,1.19l-6.51,3.76c-.61.35-1.53.39-2.06.09Z"/>
          <path class="cls-21" d="M239.57,246.65l-14.16-8.18c-.53-.3-.46-.84.15-1.19l6.51-3.76c.61-.35,1.53-.39,2.06-.08l14.16,8.18c.53.3.46.84-.15,1.19l-6.51,3.76c-.61.35-1.53.39-2.06.08Z"/>
          <path class="cls-21" d="M246.78,239.4l-11.49-6.64c-.53-.3-.46-.84.15-1.19l6.51-3.76c.61-.35,1.53-.39,2.06-.08l11.49,6.64c.53.3.46.84-.15,1.19l-6.51,3.76c-.61.35-1.53.39-2.06.09Z"/>
          <path class="cls-21" d="M270.35,264.42l-6.57-3.8c-.53-.3-.46-.84.15-1.19l6.51-3.76c.61-.35,1.53-.39,2.06-.08l6.57,3.8c.53.3.46.84-.15,1.19l-6.51,3.76c-.61.35-1.53.39-2.06.09Z"/>
          <path class="cls-21" d="M280.5,270.28l-6.57-3.8c-.53-.3-.46-.84.15-1.19l6.51-3.76c.61-.35,1.53-.39,2.06-.08l6.57,3.8c.53.3.46.84-.15,1.19l-6.52,3.76c-.61.35-1.53.39-2.06.09Z"/>
          <path class="cls-21" d="M290.66,276.14l-6.57-3.8c-.53-.3-.46-.84.15-1.19l6.52-3.76c.61-.35,1.53-.39,2.06-.08l6.57,3.8c.53.3.46.84-.15,1.19l-6.52,3.76c-.61.35-1.53.39-2.06.08Z"/>
          <path class="cls-21" d="M300.81,282.01l-6.57-3.8c-.53-.3-.46-.84.15-1.19l6.52-3.76c.61-.35,1.53-.39,2.06-.08l6.57,3.8c.53.3.46.84-.15,1.19l-6.51,3.76c-.61.35-1.53.39-2.06.08Z"/>
          <path class="cls-21" d="M310.97,287.87l-6.57-3.8c-.53-.3-.46-.84.15-1.19l6.51-3.76c.61-.35,1.53-.39,2.06-.08l6.57,3.8c.53.3.46.84-.15,1.19l-6.52,3.76c-.61.35-1.53.39-2.06.08Z"/>
          <path class="cls-21" d="M321.12,293.73l-6.57-3.8c-.53-.3-.46-.84.15-1.19l6.52-3.76c.61-.35,1.53-.39,2.06-.08l6.57,3.8c.53.3.46.84-.15,1.19l-6.52,3.76c-.61.35-1.53.39-2.06.08Z"/>
          <path class="cls-21" d="M331.27,299.59l-6.57-3.8c-.53-.3-.46-.84.15-1.19l6.52-3.76c.61-.35,1.53-.39,2.06-.08l6.57,3.8c.53.3.46.84-.15,1.19l-6.51,3.76c-.61.35-1.53.39-2.06.08Z"/>
          <path class="cls-21" d="M341.43,305.45l-6.57-3.8c-.53-.3-.46-.84.15-1.19l6.52-3.76c.61-.35,1.53-.39,2.06-.08l6.57,3.8c.53.3.46.84-.15,1.19l-6.51,3.76c-.61.35-1.53.39-2.06.08Z"/>
          <path class="cls-21" d="M351.58,311.32l-6.57-3.8c-.53-.3-.46-.84.15-1.19l6.51-3.76c.61-.35,1.53-.39,2.06-.08l6.57,3.8c.53.3.46.84-.15,1.19l-6.51,3.76c-.61.35-1.53.39-2.06.08Z"/>
          <path class="cls-21" d="M369.63,321.74l-14.35-8.28c-.53-.3-.46-.84.15-1.19l6.52-3.76c.61-.35,1.53-.39,2.06-.08l14.35,8.28c.53.3.46.84-.15,1.19l-6.51,3.76c-.61.35-1.53.39-2.06.09Z"/>
          <path class="cls-21" d="M389.4,310.33l-12.11-6.99c-.53-.3-.46-.84.15-1.19l6.52-3.76c.61-.35,1.53-.39,2.06-.08l12.11,6.99c.53.3.46.84-.15,1.19l-6.52,3.76c-.61.35-1.53.39-2.06.08Z"/>
          <path class="cls-21" d="M288.13,263.27l-6.57-3.8c-.53-.3-.46-.84.15-1.19l6.51-3.76c.61-.35,1.53-.39,2.06-.08l6.57,3.8c.53.3.46.84-.15,1.19l-6.51,3.76c-.61.35-1.53.39-2.06.08Z"/>
          <path class="cls-21" d="M277.73,257.26l-6.57-3.8c-.53-.3-.46-.84.15-1.19l6.52-3.76c.61-.35,1.53-.39,2.06-.08l6.57,3.8c.53.3.46.84-.15,1.19l-6.52,3.76c-.61.35-1.53.39-2.06.08Z"/>
          <path class="cls-21" d="M267.32,251.25l-6.57-3.8c-.53-.3-.46-.84.15-1.19l6.52-3.76c.61-.35,1.53-.39,2.06-.08l6.57,3.8c.53.3.46.84-.15,1.19l-6.51,3.76c-.61.35-1.53.39-2.06.08Z"/>
          <path class="cls-21" d="M256.91,245.25l-6.57-3.8c-.53-.3-.46-.84.15-1.19l6.51-3.76c.61-.35,1.53-.39,2.06-.08l6.57,3.8c.53.3.46.84-.15,1.19l-6.52,3.76c-.61.35-1.53.39-2.06.08Z"/>
          <path class="cls-21" d="M298.29,269.13l-6.57-3.8c-.53-.3-.46-.84.15-1.19l6.52-3.76c.61-.35,1.53-.39,2.06-.08l6.57,3.8c.53.3.46.84-.15,1.19l-6.52,3.76c-.61.35-1.53.39-2.06.08Z"/>
          <path class="cls-21" d="M308.44,275l-6.57-3.8c-.53-.3-.46-.84.15-1.19l6.51-3.76c.61-.35,1.53-.39,2.06-.08l6.57,3.8c.53.3.46.84-.15,1.19l-6.52,3.76c-.61.35-1.53.39-2.06.08Z"/>
          <path class="cls-21" d="M318.59,280.86l-6.57-3.8c-.53-.3-.46-.84.15-1.19l6.51-3.76c.61-.35,1.53-.39,2.06-.08l6.57,3.8c.53.3.46.84-.15,1.19l-6.51,3.76c-.61.35-1.53.39-2.06.09Z"/>
          <path class="cls-21" d="M328.75,286.72l-6.57-3.8c-.53-.3-.46-.84.15-1.19l6.51-3.76c.61-.35,1.53-.39,2.06-.08l6.57,3.8c.53.3.46.84-.15,1.19l-6.51,3.76c-.61.35-1.53.39-2.06.08Z"/>
          <path class="cls-21" d="M338.9,292.58l-6.57-3.8c-.53-.3-.46-.84.15-1.19l6.51-3.76c.61-.35,1.53-.39,2.06-.08l6.57,3.8c.53.3.46.84-.15,1.19l-6.52,3.76c-.61.35-1.53.39-2.06.08Z"/>
          <path class="cls-21" d="M349.06,298.44l-6.57-3.8c-.53-.3-.46-.84.15-1.19l6.52-3.76c.61-.35,1.53-.39,2.06-.08l6.57,3.8c.53.3.46.84-.15,1.19l-6.52,3.76c-.61.35-1.53.39-2.06.09Z"/>
          <path class="cls-21" d="M359.21,304.31l-6.57-3.8c-.53-.3-.46-.84.15-1.19l6.52-3.76c.61-.35,1.53-.39,2.06-.08l6.57,3.8c.53.3.46.84-.15,1.19l-6.51,3.76c-.61.35-1.53.39-2.06.08Z"/>
          <path class="cls-21" d="M369.36,310.17l-6.57-3.8c-.53-.3-.46-.84.15-1.19l6.52-3.76c.61-.35,1.53-.39,2.06-.08l6.57,3.8c.53.3.46.84-.15,1.19l-6.52,3.76c-.61.35-1.53.39-2.06.08Z"/>
          <path class="cls-21" d="M379.52,316.03l-6.57-3.8c-.53-.3-.46-.84.15-1.19l6.51-3.76c.61-.35,1.53-.39,2.06-.08l6.57,3.8c.53.3.46.84-.15,1.19l-6.52,3.76c-.61.35-1.53.39-2.06.08Z"/>
          <path class="cls-21" d="M282.79,248.77l-6.57-3.8c-.53-.3-.46-.84.15-1.19l6.51-3.76c.61-.35,1.53-.39,2.06-.08l6.57,3.8c.53.3.46.84-.15,1.19l-6.51,3.76c-.61.35-1.53.39-2.06.08Z"/>
          <path class="cls-21" d="M272.68,242.94l-6.57-3.8c-.53-.3-.46-.84.15-1.19l6.51-3.76c.61-.35,1.53-.39,2.06-.08l6.57,3.8c.53.3.46.84-.15,1.19l-6.51,3.76c-.61.35-1.53.39-2.06.09Z"/>
          <path class="cls-21" d="M262.58,237.1l-6.57-3.8c-.53-.3-.46-.84.15-1.19l6.51-3.76c.61-.35,1.53-.39,2.06-.08l6.57,3.8c.53.3.46.84-.15,1.19l-6.51,3.76c-.61.35-1.53.39-2.06.08Z"/>
          <path class="cls-21" d="M252.48,231.27l-6.57-3.8c-.53-.3-.46-.84.15-1.19l6.51-3.76c.61-.35,1.53-.39,2.06-.08l6.57,3.8c.53.3.46.84-.15,1.19l-6.51,3.76c-.61.35-1.53.39-2.06.08Z"/>
          <path class="cls-21" d="M262.87,225.27l-6.57-3.8c-.53-.3-.46-.84.15-1.19l2.15-1.24c.61-.35,1.53-.39,2.06-.08l6.57,3.8c.53.3.46.84-.15,1.19l-2.15,1.24c-.61.35-1.53.39-2.06.08Z"/>
          <path class="cls-21" d="M276.05,232.89l-6.57-3.8c-.53-.3-.46-.84.15-1.19l2.15-1.24c.61-.35,1.53-.39,2.06-.08l6.57,3.8c.53.3.46.84-.15,1.19l-2.15,1.24c-.61.35-1.53.39-2.06.08Z"/>
          <path class="cls-21" d="M286.11,238.69l-6.57-3.8c-.53-.3-.46-.84.15-1.19l2.15-1.24c.61-.35,1.53-.39,2.06-.08l6.57,3.8c.53.3.46.84-.15,1.19l-2.15,1.24c-.61.35-1.53.39-2.06.08Z"/>
          <path class="cls-21" d="M296.17,244.5l-6.57-3.8c-.53-.3-.46-.84.15-1.19l2.15-1.24c.61-.35,1.53-.39,2.06-.08l6.57,3.8c.53.3.46.84-.15,1.19l-2.15,1.24c-.61.35-1.53.39-2.06.08Z"/>
          <path class="cls-21" d="M306.23,250.31l-6.57-3.8c-.53-.3-.46-.84.15-1.19l2.15-1.24c.61-.35,1.53-.39,2.06-.08l6.57,3.8c.53.3.46.84-.15,1.19l-2.15,1.24c-.61.35-1.53.39-2.06.08Z"/>
          <path class="cls-21" d="M362.4,282.74l-6.57-3.8c-.53-.3-.46-.84.15-1.19l2.15-1.24c.61-.35,1.53-.39,2.06-.08l6.57,3.8c.53.3.46.84-.15,1.19l-2.15,1.24c-.61.35-1.53.39-2.06.08Z"/>
          <path class="cls-21" d="M372.47,288.55l-6.57-3.8c-.53-.3-.46-.84.15-1.19l2.15-1.24c.61-.35,1.53-.39,2.06-.08l6.57,3.8c.53.3.46.84-.15,1.19l-2.15,1.24c-.61.35-1.53.39-2.06.08Z"/>
          <path class="cls-21" d="M382.53,294.36l-6.57-3.8c-.53-.3-.46-.84.15-1.19l2.15-1.24c.61-.35,1.53-.39,2.06-.08l6.57,3.8c.53.3.46.84-.15,1.19l-2.15,1.24c-.61.35-1.53.39-2.06.08Z"/>
          <path class="cls-21" d="M392.59,300.17l-6.57-3.8c-.53-.3-.46-.84.15-1.19l2.15-1.24c.61-.35,1.53-.39,2.06-.08l6.57,3.8c.53.3.46.84-.15,1.19l-2.15,1.24c-.61.35-1.53.39-2.06.08Z"/>
          <path class="cls-21" d="M292.94,254.63l-6.57-3.8c-.53-.3-.46-.84.15-1.19l6.51-3.76c.61-.35,1.53-.39,2.06-.08l6.57,3.8c.53.3.46.84-.15,1.19l-6.51,3.76c-.61.35-1.53.39-2.06.08Z"/>
          <path class="cls-21" d="M303.09,260.5l-6.57-3.8c-.53-.3-.46-.84.15-1.19l6.51-3.76c.61-.35,1.53-.39,2.06-.08l6.57,3.8c.53.3.46.84-.15,1.19l-6.51,3.76c-.61.35-1.53.39-2.06.08Z"/>
          <path class="cls-21" d="M313.25,266.36l-6.57-3.8c-.53-.3-.46-.84.15-1.19l6.51-3.76c.61-.35,1.53-.39,2.06-.08l6.57,3.8c.53.3.46.84-.15,1.19l-6.52,3.76c-.61.35-1.53.39-2.06.08Z"/>
          <path class="cls-21" d="M323.4,272.22l-6.57-3.8c-.53-.3-.46-.84.15-1.19l6.52-3.76c.61-.35,1.53-.39,2.06-.08l6.57,3.8c.53.3.46.84-.15,1.19l-6.51,3.76c-.61.35-1.53.39-2.06.08Z"/>
          <path class="cls-21" d="M333.56,278.08l-6.57-3.8c-.53-.3-.46-.84.15-1.19l6.52-3.76c.61-.35,1.53-.39,2.06-.08l6.57,3.8c.53.3.46.84-.15,1.19l-6.51,3.76c-.61.35-1.53.39-2.06.08Z"/>
          <path class="cls-21" d="M343.71,283.95l-6.57-3.8c-.53-.3-.46-.84.15-1.19l6.52-3.76c.61-.35,1.53-.39,2.06-.08l6.57,3.8c.53.3.46.84-.15,1.19l-6.52,3.76c-.61.35-1.53.39-2.06.08Z"/>
          <path class="cls-21" d="M353.86,289.81l-6.57-3.8c-.53-.3-.46-.84.15-1.19l6.52-3.76c.61-.35,1.53-.39,2.06-.08l6.57,3.8c.53.3.46.84-.15,1.19l-6.52,3.76c-.61.35-1.53.39-2.06.08Z"/>
          <path class="cls-21" d="M364.02,295.67l-6.57-3.8c-.53-.3-.46-.84.15-1.19l6.51-3.76c.61-.35,1.53-.39,2.06-.08l6.57,3.8c.53.3.46.84-.15,1.19l-6.51,3.76c-.61.35-1.53.39-2.06.08Z"/>
          <path class="cls-21" d="M374.17,301.53l-6.57-3.8c-.53-.3-.46-.84.15-1.19l6.52-3.76c.61-.35,1.53-.39,2.06-.08l6.57,3.8c.53.3.46.84-.15,1.19l-6.51,3.76c-.61.35-1.53.39-2.06.08Z"/>
          <path class="cls-21" d="M234.89,255.36l-19.36-11.18c-.53-.3-.46-.84.15-1.19l6.51-3.76c.61-.35,1.53-.39,2.06-.08l19.36,11.18c.53.3.46.84-.15,1.19l-6.52,3.76c-.61.35-1.53.39-2.06.08Z"/>
          <path class="cls-21" d="M359.63,327.38l-19.36-11.18c-.53-.3-.46-.84.15-1.19l6.52-3.76c.61-.35,1.53-.39,2.06-.08l19.36,11.18c.53.3.46.84-.15,1.19l-6.52,3.76c-.61.35-1.53.39-2.06.08Z"/>
          <path class="cls-21" d="M319.02,316.88l-6.57-3.8c-.53-.3-.46-.84.15-1.19l7.76-4.48c.61-.35,1.53-.39,2.06-.08l6.57,3.8c.53.3.46.84-.15,1.19l-7.76,4.48c-.61.35-1.53.39-2.06.08Z"/>
          <path class="cls-21" d="M245.29,274.31l-10.51-6.07c-.53-.3-.46-.84.15-1.19l7.76-4.48c.61-.35,1.53-.39,2.06-.08l10.51,6.07c.53.3.46.84-.15,1.19l-7.76,4.48c-.61.35-1.53.39-2.06.08Z"/>
          <path class="cls-21" d="M309.24,311.23l-10.51-6.07c-.53-.3-.46-.84.15-1.19l7.76-4.48c.61-.35,1.53-.39,2.06-.08l10.51,6.07c.53.3.46.84-.15,1.19l-7.76,4.48c-.61.35-1.53.39-2.06.08Z"/>
          <path class="cls-21" d="M259.94,282.77l-10.51-6.07c-.53-.3-.46-.84.15-1.19l7.76-4.48c.61-.35,1.53-.39,2.06-.08l10.51,6.07c.53.3.46.84-.15,1.19l-7.76,4.48c-.61.35-1.53.39-2.06.08Z"/>
          <path class="cls-21" d="M259.46,270.98l45.72,26.4c.57.33.57.86,0,1.19l-7.91,4.57c-.57.33-1.49.33-2.05,0l-45.72-26.39,9.97-5.76Z"/>
          <path class="cls-21" d="M347.4,327.51l7.32,4.23c.43.25.38.69-.12.97l-3.18,1.83c-.5.29-1.26.32-1.69.07l-7.32-4.23c-.43-.25-.38-.69.12-.97l3.17-1.83c.5-.29,1.26-.32,1.69-.07Z"/>
          <path class="cls-21" d="M337.16,321.6l7.32,4.23c.43.25.38.69-.12.97l-3.17,1.83c-.5.29-1.26.32-1.69.07l-7.32-4.23c-.43-.25-.38-.69.12-.97l3.17-1.83c.5-.29,1.25-.32,1.69-.07Z"/>
          <path class="cls-21" d="M327.01,315.74l7.32,4.23c.43.25.38.69-.12.97l-3.17,1.83c-.5.29-1.26.32-1.69.07l-7.32-4.23c-.43-.25-.38-.69.12-.97l3.17-1.83c.5-.29,1.26-.32,1.69-.07Z"/>
          <path class="cls-21" d="M342.77,318.36l7.32,4.23c.43.25.38.69-.12.97l-3.18,1.83c-.5.29-1.26.32-1.69.07l-7.32-4.23c-.43-.25-.38-.69.12-.97l3.18-1.83c.5-.29,1.26-.32,1.69-.07Z"/>
        </g>
        <g class="cls-31">
          <path class="cls-21" d="M210.88,254.45l-6.57-3.8c-.53-.3-.46-.84.15-1.19l7.76-4.48c.61-.35,1.53-.39,2.06-.08l6.57,3.8c.53.3.46.84-.15,1.19l-7.76,4.48c-.61.35-1.53.39-2.06.08Z"/>
          <path class="cls-21" d="M221.04,260.31l-6.57-3.8c-.53-.3-.46-.84.15-1.19l7.76-4.48c.61-.35,1.53-.39,2.06-.08l6.57,3.8c.53.3.46.84-.15,1.19l-7.76,4.48c-.61.35-1.53.39-2.06.08Z"/>
          <path class="cls-21" d="M231.19,266.17l-6.57-3.8c-.53-.3-.46-.84.15-1.19l7.76-4.48c.61-.35,1.53-.39,2.06-.08l6.57,3.8c.53.3.46.84-.15,1.19l-7.76,4.48c-.61.35-1.53.39-2.06.08Z"/>
          <path class="cls-21" d="M245.24,261.33l-6.57-3.8c-.53-.3-.46-.84.15-1.19l6.51-3.76c.61-.35,1.53-.39,2.06-.08l6.57,3.8c.53.3.46.84-.15,1.19l-6.51,3.76c-.61.35-1.53.39-2.06.08Z"/>
          <path class="cls-21" d="M255.39,267.19l-6.57-3.8c-.53-.3-.46-.84.15-1.19l6.52-3.76c.61-.35,1.53-.39,2.06-.08l6.57,3.8c.53.3.46.84-.15,1.19l-6.52,3.76c-.61.35-1.53.39-2.06.08Z"/>
          <path class="cls-21" d="M265.54,273.06l-6.57-3.8c-.53-.3-.46-.84.15-1.19l6.52-3.76c.61-.35,1.53-.39,2.06-.08l6.57,3.8c.53.3.46.84-.15,1.19l-6.52,3.76c-.61.35-1.53.39-2.06.08Z"/>
          <path class="cls-21" d="M275.7,278.92l-6.57-3.8c-.53-.3-.46-.84.15-1.19l6.51-3.76c.61-.35,1.53-.39,2.06-.08l6.57,3.8c.53.3.46.84-.15,1.19l-6.51,3.76c-.61.35-1.53.39-2.06.08Z"/>
          <path class="cls-21" d="M285.85,284.78l-6.57-3.8c-.53-.3-.46-.84.15-1.19l6.52-3.76c.61-.35,1.53-.39,2.06-.08l6.57,3.8c.53.3.46.84-.15,1.19l-6.51,3.76c-.61.35-1.53.39-2.06.08Z"/>
          <path class="cls-21" d="M296.01,290.64l-6.57-3.8c-.53-.3-.46-.84.15-1.19l6.51-3.76c.61-.35,1.53-.39,2.06-.08l6.57,3.8c.53.3.46.84-.15,1.19l-6.51,3.76c-.61.35-1.53.39-2.06.08Z"/>
          <path class="cls-21" d="M306.16,296.51l-6.57-3.8c-.53-.3-.46-.84.15-1.19l6.51-3.76c.61-.35,1.53-.39,2.06-.08l6.57,3.8c.53.3.46.84-.15,1.19l-6.52,3.76c-.61.35-1.53.39-2.06.08Z"/>
          <path class="cls-21" d="M316.31,302.37l-6.57-3.8c-.53-.3-.46-.84.15-1.19l6.52-3.76c.61-.35,1.53-.39,2.06-.08l6.57,3.8c.53.3.46.84-.15,1.19l-6.52,3.76c-.61.35-1.53.39-2.06.08Z"/>
          <path class="cls-21" d="M326.47,308.23l-6.57-3.8c-.53-.3-.46-.84.15-1.19l6.52-3.76c.61-.35,1.53-.39,2.06-.08l6.57,3.8c.53.3.46.84-.15,1.19l-6.51,3.76c-.61.35-1.53.39-2.06.08Z"/>
          <path class="cls-21" d="M336.62,314.09l-6.57-3.8c-.53-.3-.46-.84.15-1.19l6.51-3.76c.61-.35,1.53-.39,2.06-.08l6.57,3.8c.53.3.46.84-.15,1.19l-6.52,3.76c-.61.35-1.53.39-2.06.08Z"/>
          <path class="cls-21" d="M260.2,258.56l-6.57-3.8c-.53-.3-.46-.84.15-1.19l6.51-3.76c.61-.35,1.53-.39,2.06-.08l6.57,3.8c.53.3.46.84-.15,1.19l-6.51,3.76c-.61.35-1.53.39-2.06.08Z"/>
          <path class="cls-21" d="M249.89,252.61l-6.57-3.8c-.53-.3-.46-.84.15-1.19l6.51-3.76c.61-.35,1.53-.39,2.06-.08l6.57,3.8c.53.3.46.84-.15,1.19l-6.51,3.76c-.61.35-1.53.39-2.06.09Z"/>
          <path class="cls-21" d="M239.57,246.65l-14.16-8.18c-.53-.3-.46-.84.15-1.19l6.51-3.76c.61-.35,1.53-.39,2.06-.08l14.16,8.18c.53.3.46.84-.15,1.19l-6.51,3.76c-.61.35-1.53.39-2.06.08Z"/>
          <path class="cls-21" d="M246.78,239.4l-11.49-6.64c-.53-.3-.46-.84.15-1.19l6.51-3.76c.61-.35,1.53-.39,2.06-.08l11.49,6.64c.53.3.46.84-.15,1.19l-6.51,3.76c-.61.35-1.53.39-2.06.09Z"/>
          <path class="cls-21" d="M270.35,264.42l-6.57-3.8c-.53-.3-.46-.84.15-1.19l6.51-3.76c.61-.35,1.53-.39,2.06-.08l6.57,3.8c.53.3.46.84-.15,1.19l-6.51,3.76c-.61.35-1.53.39-2.06.09Z"/>
          <path class="cls-21" d="M280.5,270.28l-6.57-3.8c-.53-.3-.46-.84.15-1.19l6.51-3.76c.61-.35,1.53-.39,2.06-.08l6.57,3.8c.53.3.46.84-.15,1.19l-6.52,3.76c-.61.35-1.53.39-2.06.09Z"/>
          <path class="cls-21" d="M290.66,276.14l-6.57-3.8c-.53-.3-.46-.84.15-1.19l6.52-3.76c.61-.35,1.53-.39,2.06-.08l6.57,3.8c.53.3.46.84-.15,1.19l-6.52,3.76c-.61.35-1.53.39-2.06.08Z"/>
          <path class="cls-21" d="M300.81,282.01l-6.57-3.8c-.53-.3-.46-.84.15-1.19l6.52-3.76c.61-.35,1.53-.39,2.06-.08l6.57,3.8c.53.3.46.84-.15,1.19l-6.51,3.76c-.61.35-1.53.39-2.06.08Z"/>
          <path class="cls-21" d="M310.97,287.87l-6.57-3.8c-.53-.3-.46-.84.15-1.19l6.51-3.76c.61-.35,1.53-.39,2.06-.08l6.57,3.8c.53.3.46.84-.15,1.19l-6.52,3.76c-.61.35-1.53.39-2.06.08Z"/>
          <path class="cls-21" d="M321.12,293.73l-6.57-3.8c-.53-.3-.46-.84.15-1.19l6.52-3.76c.61-.35,1.53-.39,2.06-.08l6.57,3.8c.53.3.46.84-.15,1.19l-6.52,3.76c-.61.35-1.53.39-2.06.08Z"/>
          <path class="cls-21" d="M331.27,299.59l-6.57-3.8c-.53-.3-.46-.84.15-1.19l6.52-3.76c.61-.35,1.53-.39,2.06-.08l6.57,3.8c.53.3.46.84-.15,1.19l-6.51,3.76c-.61.35-1.53.39-2.06.08Z"/>
          <path class="cls-21" d="M341.43,305.45l-6.57-3.8c-.53-.3-.46-.84.15-1.19l6.52-3.76c.61-.35,1.53-.39,2.06-.08l6.57,3.8c.53.3.46.84-.15,1.19l-6.51,3.76c-.61.35-1.53.39-2.06.08Z"/>
          <path class="cls-21" d="M351.58,311.32l-6.57-3.8c-.53-.3-.46-.84.15-1.19l6.51-3.76c.61-.35,1.53-.39,2.06-.08l6.57,3.8c.53.3.46.84-.15,1.19l-6.51,3.76c-.61.35-1.53.39-2.06.08Z"/>
          <path class="cls-21" d="M369.63,321.74l-14.35-8.28c-.53-.3-.46-.84.15-1.19l6.52-3.76c.61-.35,1.53-.39,2.06-.08l14.35,8.28c.53.3.46.84-.15,1.19l-6.51,3.76c-.61.35-1.53.39-2.06.09Z"/>
          <path class="cls-21" d="M389.4,310.33l-12.11-6.99c-.53-.3-.46-.84.15-1.19l6.52-3.76c.61-.35,1.53-.39,2.06-.08l12.11,6.99c.53.3.46.84-.15,1.19l-6.52,3.76c-.61.35-1.53.39-2.06.08Z"/>
          <path class="cls-21" d="M288.13,263.27l-6.57-3.8c-.53-.3-.46-.84.15-1.19l6.51-3.76c.61-.35,1.53-.39,2.06-.08l6.57,3.8c.53.3.46.84-.15,1.19l-6.51,3.76c-.61.35-1.53.39-2.06.08Z"/>
          <path class="cls-21" d="M277.73,257.26l-6.57-3.8c-.53-.3-.46-.84.15-1.19l6.52-3.76c.61-.35,1.53-.39,2.06-.08l6.57,3.8c.53.3.46.84-.15,1.19l-6.52,3.76c-.61.35-1.53.39-2.06.08Z"/>
          <path class="cls-21" d="M267.32,251.25l-6.57-3.8c-.53-.3-.46-.84.15-1.19l6.52-3.76c.61-.35,1.53-.39,2.06-.08l6.57,3.8c.53.3.46.84-.15,1.19l-6.51,3.76c-.61.35-1.53.39-2.06.08Z"/>
          <path class="cls-21" d="M256.91,245.25l-6.57-3.8c-.53-.3-.46-.84.15-1.19l6.51-3.76c.61-.35,1.53-.39,2.06-.08l6.57,3.8c.53.3.46.84-.15,1.19l-6.52,3.76c-.61.35-1.53.39-2.06.08Z"/>
          <path class="cls-21" d="M298.29,269.13l-6.57-3.8c-.53-.3-.46-.84.15-1.19l6.52-3.76c.61-.35,1.53-.39,2.06-.08l6.57,3.8c.53.3.46.84-.15,1.19l-6.52,3.76c-.61.35-1.53.39-2.06.08Z"/>
          <path class="cls-21" d="M308.44,275l-6.57-3.8c-.53-.3-.46-.84.15-1.19l6.51-3.76c.61-.35,1.53-.39,2.06-.08l6.57,3.8c.53.3.46.84-.15,1.19l-6.52,3.76c-.61.35-1.53.39-2.06.08Z"/>
          <path class="cls-21" d="M318.59,280.86l-6.57-3.8c-.53-.3-.46-.84.15-1.19l6.51-3.76c.61-.35,1.53-.39,2.06-.08l6.57,3.8c.53.3.46.84-.15,1.19l-6.51,3.76c-.61.35-1.53.39-2.06.09Z"/>
          <path class="cls-21" d="M328.75,286.72l-6.57-3.8c-.53-.3-.46-.84.15-1.19l6.51-3.76c.61-.35,1.53-.39,2.06-.08l6.57,3.8c.53.3.46.84-.15,1.19l-6.51,3.76c-.61.35-1.53.39-2.06.08Z"/>
          <path class="cls-21" d="M338.9,292.58l-6.57-3.8c-.53-.3-.46-.84.15-1.19l6.51-3.76c.61-.35,1.53-.39,2.06-.08l6.57,3.8c.53.3.46.84-.15,1.19l-6.52,3.76c-.61.35-1.53.39-2.06.08Z"/>
          <path class="cls-21" d="M349.06,298.44l-6.57-3.8c-.53-.3-.46-.84.15-1.19l6.52-3.76c.61-.35,1.53-.39,2.06-.08l6.57,3.8c.53.3.46.84-.15,1.19l-6.52,3.76c-.61.35-1.53.39-2.06.09Z"/>
          <path class="cls-21" d="M359.21,304.31l-6.57-3.8c-.53-.3-.46-.84.15-1.19l6.52-3.76c.61-.35,1.53-.39,2.06-.08l6.57,3.8c.53.3.46.84-.15,1.19l-6.51,3.76c-.61.35-1.53.39-2.06.08Z"/>
          <path class="cls-21" d="M369.36,310.17l-6.57-3.8c-.53-.3-.46-.84.15-1.19l6.52-3.76c.61-.35,1.53-.39,2.06-.08l6.57,3.8c.53.3.46.84-.15,1.19l-6.52,3.76c-.61.35-1.53.39-2.06.08Z"/>
          <path class="cls-21" d="M379.52,316.03l-6.57-3.8c-.53-.3-.46-.84.15-1.19l6.51-3.76c.61-.35,1.53-.39,2.06-.08l6.57,3.8c.53.3.46.84-.15,1.19l-6.52,3.76c-.61.35-1.53.39-2.06.08Z"/>
          <path class="cls-21" d="M282.79,248.77l-6.57-3.8c-.53-.3-.46-.84.15-1.19l6.51-3.76c.61-.35,1.53-.39,2.06-.08l6.57,3.8c.53.3.46.84-.15,1.19l-6.51,3.76c-.61.35-1.53.39-2.06.08Z"/>
          <path class="cls-21" d="M272.68,242.94l-6.57-3.8c-.53-.3-.46-.84.15-1.19l6.51-3.76c.61-.35,1.53-.39,2.06-.08l6.57,3.8c.53.3.46.84-.15,1.19l-6.51,3.76c-.61.35-1.53.39-2.06.09Z"/>
          <path class="cls-21" d="M262.58,237.1l-6.57-3.8c-.53-.3-.46-.84.15-1.19l6.51-3.76c.61-.35,1.53-.39,2.06-.08l6.57,3.8c.53.3.46.84-.15,1.19l-6.51,3.76c-.61.35-1.53.39-2.06.08Z"/>
          <path class="cls-21" d="M252.48,231.27l-6.57-3.8c-.53-.3-.46-.84.15-1.19l6.51-3.76c.61-.35,1.53-.39,2.06-.08l6.57,3.8c.53.3.46.84-.15,1.19l-6.51,3.76c-.61.35-1.53.39-2.06.08Z"/>
          <path class="cls-21" d="M262.87,225.27l-6.57-3.8c-.53-.3-.46-.84.15-1.19l2.15-1.24c.61-.35,1.53-.39,2.06-.08l6.57,3.8c.53.3.46.84-.15,1.19l-2.15,1.24c-.61.35-1.53.39-2.06.08Z"/>
          <path class="cls-21" d="M276.05,232.89l-6.57-3.8c-.53-.3-.46-.84.15-1.19l2.15-1.24c.61-.35,1.53-.39,2.06-.08l6.57,3.8c.53.3.46.84-.15,1.19l-2.15,1.24c-.61.35-1.53.39-2.06.08Z"/>
          <path class="cls-21" d="M286.11,238.69l-6.57-3.8c-.53-.3-.46-.84.15-1.19l2.15-1.24c.61-.35,1.53-.39,2.06-.08l6.57,3.8c.53.3.46.84-.15,1.19l-2.15,1.24c-.61.35-1.53.39-2.06.08Z"/>
          <path class="cls-21" d="M296.17,244.5l-6.57-3.8c-.53-.3-.46-.84.15-1.19l2.15-1.24c.61-.35,1.53-.39,2.06-.08l6.57,3.8c.53.3.46.84-.15,1.19l-2.15,1.24c-.61.35-1.53.39-2.06.08Z"/>
          <path class="cls-21" d="M306.23,250.31l-6.57-3.8c-.53-.3-.46-.84.15-1.19l2.15-1.24c.61-.35,1.53-.39,2.06-.08l6.57,3.8c.53.3.46.84-.15,1.19l-2.15,1.24c-.61.35-1.53.39-2.06.08Z"/>
          <path class="cls-21" d="M362.4,282.74l-6.57-3.8c-.53-.3-.46-.84.15-1.19l2.15-1.24c.61-.35,1.53-.39,2.06-.08l6.57,3.8c.53.3.46.84-.15,1.19l-2.15,1.24c-.61.35-1.53.39-2.06.08Z"/>
          <path class="cls-21" d="M372.47,288.55l-6.57-3.8c-.53-.3-.46-.84.15-1.19l2.15-1.24c.61-.35,1.53-.39,2.06-.08l6.57,3.8c.53.3.46.84-.15,1.19l-2.15,1.24c-.61.35-1.53.39-2.06.08Z"/>
          <path class="cls-21" d="M382.53,294.36l-6.57-3.8c-.53-.3-.46-.84.15-1.19l2.15-1.24c.61-.35,1.53-.39,2.06-.08l6.57,3.8c.53.3.46.84-.15,1.19l-2.15,1.24c-.61.35-1.53.39-2.06.08Z"/>
          <path class="cls-21" d="M392.59,300.17l-6.57-3.8c-.53-.3-.46-.84.15-1.19l2.15-1.24c.61-.35,1.53-.39,2.06-.08l6.57,3.8c.53.3.46.84-.15,1.19l-2.15,1.24c-.61.35-1.53.39-2.06.08Z"/>
          <path class="cls-21" d="M292.94,254.63l-6.57-3.8c-.53-.3-.46-.84.15-1.19l6.51-3.76c.61-.35,1.53-.39,2.06-.08l6.57,3.8c.53.3.46.84-.15,1.19l-6.51,3.76c-.61.35-1.53.39-2.06.08Z"/>
          <path class="cls-21" d="M303.09,260.5l-6.57-3.8c-.53-.3-.46-.84.15-1.19l6.51-3.76c.61-.35,1.53-.39,2.06-.08l6.57,3.8c.53.3.46.84-.15,1.19l-6.51,3.76c-.61.35-1.53.39-2.06.08Z"/>
          <path class="cls-21" d="M313.25,266.36l-6.57-3.8c-.53-.3-.46-.84.15-1.19l6.51-3.76c.61-.35,1.53-.39,2.06-.08l6.57,3.8c.53.3.46.84-.15,1.19l-6.52,3.76c-.61.35-1.53.39-2.06.08Z"/>
          <path class="cls-21" d="M323.4,272.22l-6.57-3.8c-.53-.3-.46-.84.15-1.19l6.52-3.76c.61-.35,1.53-.39,2.06-.08l6.57,3.8c.53.3.46.84-.15,1.19l-6.51,3.76c-.61.35-1.53.39-2.06.08Z"/>
          <path class="cls-21" d="M333.56,278.08l-6.57-3.8c-.53-.3-.46-.84.15-1.19l6.52-3.76c.61-.35,1.53-.39,2.06-.08l6.57,3.8c.53.3.46.84-.15,1.19l-6.51,3.76c-.61.35-1.53.39-2.06.08Z"/>
          <path class="cls-21" d="M343.71,283.95l-6.57-3.8c-.53-.3-.46-.84.15-1.19l6.52-3.76c.61-.35,1.53-.39,2.06-.08l6.57,3.8c.53.3.46.84-.15,1.19l-6.52,3.76c-.61.35-1.53.39-2.06.08Z"/>
          <path class="cls-21" d="M353.86,289.81l-6.57-3.8c-.53-.3-.46-.84.15-1.19l6.52-3.76c.61-.35,1.53-.39,2.06-.08l6.57,3.8c.53.3.46.84-.15,1.19l-6.52,3.76c-.61.35-1.53.39-2.06.08Z"/>
          <path class="cls-21" d="M364.02,295.67l-6.57-3.8c-.53-.3-.46-.84.15-1.19l6.51-3.76c.61-.35,1.53-.39,2.06-.08l6.57,3.8c.53.3.46.84-.15,1.19l-6.51,3.76c-.61.35-1.53.39-2.06.08Z"/>
          <path class="cls-21" d="M374.17,301.53l-6.57-3.8c-.53-.3-.46-.84.15-1.19l6.52-3.76c.61-.35,1.53-.39,2.06-.08l6.57,3.8c.53.3.46.84-.15,1.19l-6.51,3.76c-.61.35-1.53.39-2.06.08Z"/>
          <path class="cls-21" d="M234.89,255.36l-19.36-11.18c-.53-.3-.46-.84.15-1.19l6.51-3.76c.61-.35,1.53-.39,2.06-.08l19.36,11.18c.53.3.46.84-.15,1.19l-6.52,3.76c-.61.35-1.53.39-2.06.08Z"/>
          <path class="cls-21" d="M359.63,327.38l-19.36-11.18c-.53-.3-.46-.84.15-1.19l6.52-3.76c.61-.35,1.53-.39,2.06-.08l19.36,11.18c.53.3.46.84-.15,1.19l-6.52,3.76c-.61.35-1.53.39-2.06.08Z"/>
          <path class="cls-21" d="M319.02,316.88l-6.57-3.8c-.53-.3-.46-.84.15-1.19l7.76-4.48c.61-.35,1.53-.39,2.06-.08l6.57,3.8c.53.3.46.84-.15,1.19l-7.76,4.48c-.61.35-1.53.39-2.06.08Z"/>
          <path class="cls-21" d="M245.29,274.31l-10.51-6.07c-.53-.3-.46-.84.15-1.19l7.76-4.48c.61-.35,1.53-.39,2.06-.08l10.51,6.07c.53.3.46.84-.15,1.19l-7.76,4.48c-.61.35-1.53.39-2.06.08Z"/>
          <path class="cls-21" d="M309.24,311.23l-10.51-6.07c-.53-.3-.46-.84.15-1.19l7.76-4.48c.61-.35,1.53-.39,2.06-.08l10.51,6.07c.53.3.46.84-.15,1.19l-7.76,4.48c-.61.35-1.53.39-2.06.08Z"/>
          <path class="cls-21" d="M259.94,282.77l-10.51-6.07c-.53-.3-.46-.84.15-1.19l7.76-4.48c.61-.35,1.53-.39,2.06-.08l10.51,6.07c.53.3.46.84-.15,1.19l-7.76,4.48c-.61.35-1.53.39-2.06.08Z"/>
          <path class="cls-21" d="M259.46,270.98l45.72,26.4c.57.33.57.86,0,1.19l-7.91,4.57c-.57.33-1.49.33-2.05,0l-45.72-26.39,9.97-5.76Z"/>
          <path class="cls-21" d="M347.4,327.51l7.32,4.23c.43.25.38.69-.12.97l-3.18,1.83c-.5.29-1.26.32-1.69.07l-7.32-4.23c-.43-.25-.38-.69.12-.97l3.17-1.83c.5-.29,1.26-.32,1.69-.07Z"/>
          <path class="cls-21" d="M337.16,321.6l7.32,4.23c.43.25.38.69-.12.97l-3.17,1.83c-.5.29-1.26.32-1.69.07l-7.32-4.23c-.43-.25-.38-.69.12-.97l3.17-1.83c.5-.29,1.25-.32,1.69-.07Z"/>
          <path class="cls-21" d="M327.01,315.74l7.32,4.23c.43.25.38.69-.12.97l-3.17,1.83c-.5.29-1.26.32-1.69.07l-7.32-4.23c-.43-.25-.38-.69.12-.97l3.17-1.83c.5-.29,1.26-.32,1.69-.07Z"/>
          <path class="cls-21" d="M342.77,318.36l7.32,4.23c.43.25.38.69-.12.97l-3.18,1.83c-.5.29-1.26.32-1.69.07l-7.32-4.23c-.43-.25-.38-.69.12-.97l3.18-1.83c.5-.29,1.26-.32,1.69-.07Z"/>
        </g>
        <path class="cls-27" d="M450.23,306.5l-193.98-112c-3.05-1.76-4.64-6.05-3.56-9.58l43.87-142.43c1.09-3.53,4.44-4.97,7.49-3.21l193.98,112c3.05,1.76,4.64,6.05,3.56,9.58l-43.87,142.43c-1.09,3.53-4.44,4.97-7.49,3.21Z"/>
        <path class="cls-9" d="M448.4,301.52l-188.15-108.72c-2.92-1.69-4.44-5.79-3.4-9.17l41.94-136.17c1.04-3.38,4.25-4.75,7.17-3.07l188.15,108.72c2.92,1.69,4.44,5.79,3.4,9.17l-41.94,136.17c-1.04,3.38-4.25,4.75-7.17,3.07Z"/>
        <path class="cls-8" d="M448.4,301.52l-188.15-108.72c-2.92-1.69-4.44-5.79-3.4-9.17l41.94-136.17c1.04-3.38,4.25-4.75,7.17-3.07l188.15,108.72c2.92,1.69,4.44,5.79,3.4,9.17l-41.94,136.17c-1.04,3.38-4.25,4.75-7.17,3.07Z"/>
        <path class="cls-8" d="M448.4,301.52l-188.15-108.72c-2.92-1.69-4.44-5.79-3.4-9.17l41.94-136.17c1.04-3.38,4.25-4.75,7.17-3.07l188.15,108.72c2.92,1.69,4.44,5.79,3.4,9.17l-41.94,136.17c-1.04,3.38-4.25,4.75-7.17,3.07Z"/>
        <path class="cls-5" d="M438.3,259.9l-127.37-73.54c-2-1.16-3.05-3.97-2.34-6.29l28.8-93.52c.71-2.32,2.92-3.26,4.92-2.11l127.37,73.54c2,1.16,3.05,3.97,2.34,6.29l-28.8,93.52c-.71,2.32-2.92,3.26-4.92,2.11Z"/>
        <path class="cls-15" d="M421.09,262.16l-127.37-73.54c-2-1.16-3.05-3.97-2.34-6.29l28.8-93.52c.71-2.32,2.92-3.26,4.92-2.11l127.37,73.54c2,1.16,3.05,3.97,2.33,6.29l-28.8,93.52c-.71,2.32-2.91,3.26-4.92,2.1Z"/>
        <g class="cls-29">
          <path class="cls-21" d="M421.09,262.16l-127.37-73.54c-2-1.16-3.05-3.97-2.34-6.29l28.8-93.52c.71-2.32,2.92-3.26,4.92-2.11l127.37,73.54c2,1.16,3.05,3.97,2.33,6.29l-28.8,93.52c-.71,2.32-2.91,3.26-4.92,2.1Z"/>
        </g>
        <path class="cls-20" d="M452.47,160.24l-127.37-73.54c-1.26-.72-2.59-.62-3.58.12.6-.02,1.23.12,1.84.47l127.37,73.54c2,1.16,3.05,3.97,2.33,6.29l-28.8,93.52c-.27.87-.74,1.54-1.33,1.98,1.37-.04,2.58-.97,3.08-2.58l28.8-93.52c.71-2.32-.33-5.13-2.33-6.29Z"/>
        <path class="cls-8" d="M260.44,338.53c-1.76,0-3.44-.37-4.72-1.11h0s-51.03-29.46-51.03-29.46c-1.35-.78-2.1-1.9-2.1-3.14,0-1.45,1.03-2.87,2.81-3.9l26.27-15.17c3.21-1.85,7.92-2.03,10.73-.41l51.03,29.46c1.35.78,2.1,1.9,2.1,3.14,0,1.45-1.03,2.87-2.81,3.9l-26.27,15.17c-1.74,1.01-3.93,1.52-6.01,1.52ZM237.71,285.73c-1.84,0-3.8.44-5.3,1.31l-26.27,15.17c-1.32.76-2.08,1.72-2.08,2.62s.74,1.51,1.36,1.87l51.03,29.46c2.32,1.33,6.55,1.15,9.25-.42l26.27-15.17c1.32-.76,2.08-1.72,2.08-2.62s-.74-1.51-1.36-1.87l-51.03-29.46c-1.04-.6-2.46-.89-3.96-.89Z"/>
      </g>
    </g>
    <g id="Code">
      <g>
        <g>
          <path class="cls-20" d="M356.13,135.77l-7.87-4.55c-.73-.42-1.12-1.44-.88-2.26h0c.25-.83,1.04-1.16,1.77-.74l7.87,4.55c.73.42,1.12,1.44.88,2.26h0c-.25.83-1.04,1.16-1.77.74Z"/>
          <path class="cls-20" d="M374.88,146.6l-11.61-6.7c-.73-.42-1.12-1.44-.88-2.26h0c.25-.83,1.04-1.16,1.77-.74l11.61,6.7c.73.42,1.12,1.44.88,2.26h0c-.25.83-1.04,1.16-1.77.74Z"/>
          <path class="cls-20" d="M340.25,170.83l-7.87-4.55c-.73-.42-1.12-1.44-.88-2.26h0c.25-.83,1.04-1.16,1.77-.74l7.87,4.55c.73.42,1.12,1.44.88,2.26h0c-.25.83-1.04,1.16-1.77.74Z"/>
          <path class="cls-20" d="M356.97,180.48l-11.61-6.7c-.73-.42-1.12-1.44-.88-2.26h0c.25-.83,1.04-1.16,1.77-.74l11.61,6.7c.73.42,1.12,1.44.88,2.26h0c-.25.83-1.04,1.16-1.77.73Z"/>
          <path class="cls-20" d="M332.54,129.52l-4.92-2.84c-.73-.42-1.12-1.44-.88-2.26h0c.25-.83,1.04-1.16,1.77-.74l4.92,2.84c.73.42,1.12,1.44.88,2.26h0c-.25.83-1.04,1.16-1.77.74Z"/>
          <path class="cls-20" d="M347.34,145.44l-15.03-8.68c-.73-.42-1.12-1.44-.88-2.26h0c.25-.83,1.04-1.16,1.77-.74l15.03,8.68c.73.42,1.12,1.44.88,2.26h0c-.25.83-1.04,1.16-1.77.74Z"/>
          <path class="cls-20" d="M333.48,152.18l-4.92-2.84c-.73-.42-1.12-1.44-.88-2.26h0c.25-.83,1.04-1.16,1.77-.74l4.92,2.84c.73.42,1.12,1.44.88,2.26h0c-.25.83-1.04,1.16-1.77.74Z"/>
          <path class="cls-20" d="M358.78,196.27l-13.14-7.59c-.73-.42-1.12-1.44-.88-2.26h0c.25-.83,1.04-1.16,1.77-.74l13.14,7.59c.73.42,1.12,1.44.88,2.26h0c-.25.83-1.04,1.16-1.77.74Z"/>
          <path class="cls-20" d="M327.97,163.74l-3.16-1.82c-.73-.42-1.12-1.44-.88-2.26h0c.25-.83,1.04-1.16,1.77-.74l3.16,1.82c.73.42,1.12,1.44.88,2.26h0c-.25.83-1.04,1.16-1.77.74Z"/>
          <path class="cls-20" d="M324.98,176.75l-3.92-2.26c-.73-.42-1.12-1.44-.88-2.26h0c.25-.83,1.04-1.16,1.77-.74l3.92,2.26c.73.42,1.12,1.44.88,2.26h0c-.25.83-1.04,1.16-1.77.74Z"/>
          <path class="cls-20" d="M340.23,185.56l-10.34-5.97c-.73-.42-1.12-1.44-.88-2.26h0c.25-.83,1.04-1.16,1.77-.74l10.34,5.97c.73.42,1.12,1.44.88,2.26h0c-.25.83-1.04,1.16-1.77.74Z"/>
          <path class="cls-20" d="M326.61,185.07l-7.43-4.29c-.73-.42-1.12-1.44-.88-2.26h0c.25-.83,1.04-1.16,1.77-.74l7.43,4.29c.73.42,1.12,1.44.88,2.26h0c-.25.83-1.04,1.16-1.77.74Z"/>
          <path class="cls-20" d="M370.05,202.81l-4.77-2.76c-.73-.42-1.12-1.44-.88-2.26h0c.25-.83,1.04-1.16,1.77-.74l4.77,2.76c.73.42,1.12,1.44.88,2.26h0c-.25.83-1.04,1.16-1.77.74Z"/>
          <path class="cls-20" d="M351.78,162.74l-13.14-7.59c-.73-.42-1.12-1.44-.88-2.26h0c.25-.83,1.04-1.16,1.77-.74l13.14,7.59c.73.42,1.12,1.44.88,2.26h0c-.25.83-1.04,1.16-1.77.74Z"/>
        </g>
        <path class="cls-2" d="M353.33,156.27l-22.9-13.22c-.73-.42-1.12-1.44-.88-2.26h0c.25-.83,1.04-1.16,1.77-.74l22.9,13.22c.73.42,1.12,1.44.88,2.26h0c-.25.83-1.04,1.16-1.77.74Z"/>
        <path class="cls-2" d="M339.82,163.21l-13.14-7.59c-.73-.42-1.12-1.44-.88-2.26h0c.25-.83,1.04-1.16,1.77-.74l13.14,7.59c.73.42,1.12,1.44.88,2.26h0c-.25.83-1.04,1.16-1.77.74Z"/>
        <path class="cls-2" d="M361.74,168.49l-4.77-2.76c-.73-.42-1.12-1.44-.88-2.26h0c.25-.83,1.04-1.16,1.77-.74l4.77,2.76c.73.42,1.12,1.44.88,2.26h0c-.25.83-1.04,1.16-1.77.74Z"/>
        <path class="cls-2" d="M410.3,167.04l-28.27-16.32c-.73-.42-1.12-1.44-.88-2.26h0c.25-.83,1.04-1.16,1.77-.74l28.27,16.32c.73.42,1.12,1.44.88,2.26h0c-.25.83-1.04,1.16-1.77.74Z"/>
        <path class="cls-25" d="M338.73,177.32l-15.79-9.12c-.73-.42-1.12-1.44-.88-2.26h0c.25-.83,1.04-1.16,1.77-.74l15.79,9.12c.73.42,1.12,1.44.88,2.26h0c-.25.83-1.04,1.16-1.77.74Z"/>
        <path class="cls-25" d="M341.11,127.1l-11.61-6.7c-.73-.42-1.12-1.44-.88-2.26h0c.25-.83,1.04-1.16,1.77-.74l11.61,6.7c.73.42,1.12,1.44.88,2.26h0c-.25.83-1.04,1.16-1.77.74Z"/>
        <path class="cls-2" d="M324.18,191.04l-13.45-7.76c-.73-.42-1.12-1.44-.88-2.26h0c.25-.83,1.04-1.16,1.77-.74l13.45,7.76c.73.42,1.12,1.44.88,2.26h0c-.25.83-1.04,1.16-1.77.74Z"/>
      </g>
    </g>
    <g id="Code_header" data-name="Code header">
      <g>
        <path class="cls-20" d="M413.47,152.51l-5.75-3.32c-.53-.31-.82-1.05-.64-1.65h0c.18-.61.76-.85,1.29-.54l5.75,3.32c.53.31.82,1.05.64,1.66h0c-.18.6-.76.85-1.29.54Z"/>
        <path class="cls-20" d="M424.45,158.84l-5.76-3.32c-.53-.31-.82-1.05-.64-1.65h0c.18-.61.76-.85,1.29-.54l5.75,3.32c.53.31.82,1.05.64,1.65h0c-.18.61-.76.85-1.29.54Z"/>
        <path class="cls-20" d="M435.43,165.18l-5.75-3.32c-.53-.31-.82-1.05-.64-1.65h0c.18-.61.76-.85,1.29-.54l5.75,3.32c.53.31.82,1.05.64,1.65h0c-.18.61-.76.85-1.3.54Z"/>
        <path class="cls-25" d="M440.83,168.3l-.17-.1c-.53-.31-.82-1.05-.64-1.65h0c.18-.61.76-.85,1.29-.54l.17.1c.53.31.82,1.05.64,1.65h0c-.18.61-.76.85-1.29.54Z"/>
      </g>
    </g>
    <g id="Cup_Base" data-name="Cup Base">
      <path class="cls-4" d="M143.76,235.66c-3.64,0-7.29-.94-10.53-2.81h0l-38.56-22.26c-1.67-.97-2.67-2.69-2.67-4.62s1-3.66,2.67-4.62l38.56-22.26c6.5-3.75,14.57-3.75,21.07,0l38.56,22.26c1.67.97,2.67,2.69,2.67,4.62s-1,3.66-2.67,4.62l-38.56,22.26c-3.25,1.88-6.89,2.81-10.54,2.81ZM134.48,230.67c5.73,3.3,12.84,3.3,18.56,0l38.56-22.26c.88-.51,1.41-1.43,1.41-2.45s-.53-1.94-1.41-2.45l-38.56-22.26c-5.73-3.31-12.84-3.3-18.56,0l-38.56,22.26c-.88.51-1.41,1.43-1.41,2.45s.53,1.94,1.41,2.45l38.56,22.26Z"/>
    </g>
    <g id="Cup">
      <g>
        <path class="cls-1" d="M162.29,217.3c-10.34,5.97-27.11,5.97-37.45,0-10.34-5.97-10.34-15.65,0-21.62s27.11-5.97,37.45,0c10.34,5.97,10.34,15.65,0,21.62Z"/>
        <path class="cls-22" d="M182.82,97.51h-75.43l7.02,81.67h0c0,4.54,3,9.07,8.99,12.53,11.99,6.92,31.43,6.92,43.42,0,5.99-3.46,8.99-8,8.99-12.53l7.02-81.67Z"/>
        <path class="cls-8" d="M182.82,97.51h-75.43l1.15,13.44c1.73,2.22,4.05,4.34,6.99,6.29,14.41,9.56,38.2,11.4,54.43,4.52l-2.51,59.73c-.11,2.6-1.01,5.14-2.7,7.12-2.44,2.88-7.15,6.26-16.2,8.17,6.67-.43,13.14-2.11,18.26-5.07,5.99-3.46,8.99-8,8.99-12.53l5.63-65.5h0l1.39-16.17Z"/>
        <ellipse class="cls-8" cx="145.1" cy="97.51" rx="37.72" ry="21.78"/>
        <ellipse class="cls-8" cx="145.1" cy="89.83" rx="32.49" ry="18.76"/>
        <path class="cls-11" d="M185.05,96.48h0s0-.06,0-.06c0-.04,0-.07-.01-.11l-.72-7.31-.03.08c-.32-5.54-4.14-11.02-11.45-15.24-15.31-8.84-40.14-8.84-55.45,0-7.5,4.33-11.32,9.98-11.47,15.66v-.02s-.7,6.51-.7,6.51c-.02.17-.04.34-.05.51v.11s0,0,0,0c-.41,6.2,3.47,12.48,11.68,17.22,15.62,9.02,40.94,9.02,56.56,0,8.25-4.77,12.14-11.1,11.67-17.34Z"/>
        <ellipse class="cls-19" cx="145.1" cy="89.83" rx="32.49" ry="18.76"/>
        <ellipse class="cls-16" cx="143.56" cy="89.83" rx="32.49" ry="18.76"/>
        <path class="cls-8" d="M125.99,79.37c12.69-7.32,33.26-7.32,45.94,0,.16.09.3.2.45.29-1.22-1.09-2.65-2.13-4.31-3.08-12.69-7.32-33.26-7.32-45.94,0-12.53,7.23-12.66,18.89-.45,26.23-8.15-7.27-6.72-17.07,4.31-23.44Z"/>
        <path class="cls-23" d="M122.13,79.83c12.69-7.32,33.26-7.32,45.94,0,5.63,3.25,8.75,7.39,9.39,11.64.8-5.33-2.33-10.81-9.39-14.89-12.69-7.32-33.26-7.32-45.94,0-7.06,4.08-10.19,9.56-9.39,14.89.64-4.24,3.76-8.39,9.39-11.63Z"/>
        <path class="cls-13" d="M173.07,74.01c-15.29-9.01-40.21-9.23-55.66-.49-15.45,8.74-15.57,23.13-.28,32.13,15.29,9.01,40.21,9.23,55.66.49,15.45-8.74,15.57-23.13.28-32.14ZM168.07,103.1c-4.24,2.45-9.36,4.06-14.77,4.87l-.59-1.94c-.24-.78-.96-1.32-1.78-1.32h-11.67c-.82,0-1.54.54-1.78,1.32l-.59,1.94c-5.41-.81-10.53-2.42-14.77-4.87-12.69-7.32-12.69-19.2,0-26.52,12.69-7.32,33.26-7.32,45.94,0,12.69,7.32,12.69,19.2,0,26.52Z"/>
        <g>
          <path class="cls-20" d="M168.07,75.18c-12.69-7.32-33.26-7.32-45.94,0-6.65,3.84-9.81,8.93-9.49,13.96.29-4.57,3.45-9.08,9.49-12.57,12.69-7.32,33.26-7.32,45.94,0,6.04,3.49,9.19,8,9.49,12.57.32-5.03-2.84-10.12-9.49-13.96Z"/>
          <path class="cls-20" d="M172.79,104.76c-15.45,8.74-40.37,8.52-55.66-.49-7.28-4.29-11.05-9.79-11.36-15.33-.3,5.99,3.47,12.07,11.36,16.72,15.29,9.01,40.21,9.23,55.66.49,8.1-4.58,11.98-10.71,11.64-16.81-.28,5.63-4.16,11.19-11.64,15.42Z"/>
        </g>
        <path class="cls-6" d="M148.59,108.98h-6.97c-.49,0-.88-.4-.88-.88v-.12c0-.49.39-.88.88-.88h6.97c.49,0,.88.4.88.88v.12c0,.49-.39.88-.88.88Z"/>
        <path class="cls-7" d="M148.59,107.09h-6.97c-.49,0-.88.4-.88.88v.12c0,.08.03.16.05.23.1-.37.43-.65.83-.65h6.97c.4,0,.73.28.83.65.02-.08.05-.15.05-.23v-.12c0-.49-.39-.88-.88-.88Z"/>
      </g>
      <g id="Icon_Data" class="cls-30">
        <path id="Icon_Data-2" data-name="Icon_Data" class="cls-18" d="M139.02,164.36h-5.08c-.44-.69-.09-1.19.22-1.71,1.24-2.1,2.56-4.29,3.98-6.57.62-1,.53-1.76-.25-2.79-2.08-2.75-4.26-5.7-6.56-8.86-.62-.85-1.3-1.75-1-2.89.29-1.12,1.22-.92,2.02-.92,5.33.02,4.1-.57,7.53,4.55,1.27,1.9,2.41,3.81,3.61,5.54,1.2,1.74,2.29,1.69,3.47-.13,1.66-2.56,3.43-5.24,5.27-8.09.88-1.36,1.92-2.08,3.21-1.86,1.51.26,3.34-.82,4.48.87l-.12.87c-1.64,4.09-4.43,6.78-6.51,9.79-2.06,2.99-2.12,2.13-.42,4.99.96,1.61,1.9,3.15,2.8,4.65.47.78.94,1.54.72,2.56h-5.08c-1.3-.53-1.79-1.85-2.56-2.94-.64-.91-1.27-1.85-1.92-2.82-1.02-1.53-2.29-1.57-3.35-.03-1.01,1.47-1.97,2.9-2.89,4.3-.42.65-.93,1.14-1.59,1.49Z"/>
      </g>
    </g>
  </g>
</svg>