<svg width="1725" height="1001" viewBox="0 0 1725 1001" fill="none" xmlns="http://www.w3.org/2000/svg">
<g clip-path="url(#clip0_442_12)">
<circle cx="1236.5" cy="490.5" r="300.5" fill="#2AA1FF" fill-opacity="0.22"/>
<circle cx="1209.5" cy="462.5" r="300.5" fill="white"/>
<path d="M139.8 561V532.12H150.12C153.64 532.12 155.6 532.48 157.4 534.24C158.64 535.44 159.44 537.12 159.44 539.4C159.44 544.16 155.96 545.4 154.56 545.92C156.24 546.4 160.32 547.6 160.32 553.12C160.32 557.04 157.8 559.04 156.84 559.68C154.84 561 152.6 561 150.32 561H139.8ZM143.68 535.4V544.32H149.28C150.64 544.32 155.28 544.32 155.28 539.76C155.28 535.4 151.64 535.4 149.44 535.4H143.68ZM143.68 547.76V557.76H150.52C153.68 557.76 156.2 556.08 156.2 552.76C156.2 549.88 154.2 547.76 150.68 547.76H143.68ZM168.4 532.12H172.4V550C172.4 553.08 173.08 554.36 173.68 555.2C175.48 557.6 178.28 558.04 180.28 558.04C188.08 558.04 188.08 551.92 188.08 549.84V532.12H191.96V549.92C191.96 551.48 191.92 554.72 189.6 557.6C186.76 561.16 182.36 561.6 180.28 561.6C177.56 561.6 172.76 560.84 170.08 557C169.2 555.72 168.4 554.04 168.4 549.72V532.12ZM201.333 561V532.12H205.333V561H201.333ZM214.665 561V532.12H218.625V557.44H232.065V561H214.665ZM238.692 561V532.12H247.052C250.932 532.12 255.492 532.12 258.692 535.88C261.252 538.88 262.252 542.84 262.252 546.8C262.252 553.04 259.652 556.88 257.452 558.64C254.612 561 251.052 561 246.812 561H238.692ZM242.692 535.44V557.72H246.612C249.372 557.72 252.252 557.56 254.172 556.12C257.852 553.36 257.972 548.64 257.972 546.96C257.972 545.88 257.892 540.96 255.172 537.96C253.332 535.92 251.012 535.44 247.492 535.44H242.692ZM283.544 561V549.64L272.264 532.12H277.224L285.744 546.28L294.384 532.12H298.864L287.584 549.84V561H283.544ZM301.423 546.76C301.423 543.48 301.983 538.64 305.143 535.24C308.143 532 312.103 531.36 314.783 531.36C322.783 531.36 327.823 536.48 327.823 546.28C327.823 553.96 324.743 561.68 314.463 561.68C304.623 561.68 301.423 554.68 301.423 546.76ZM305.623 546.52C305.623 549.68 306.183 553.16 308.183 555.64C309.823 557.68 312.303 558.28 314.583 558.28C316.943 558.28 319.303 557.64 320.983 555.64C323.343 552.76 323.583 548.2 323.583 546.24C323.583 539.68 321.423 534.72 314.823 534.72C307.503 534.72 305.623 540.6 305.623 546.52ZM335.915 532.12H339.915V550C339.915 553.08 340.595 554.36 341.195 555.2C342.995 557.6 345.795 558.04 347.795 558.04C355.595 558.04 355.595 551.92 355.595 549.84V532.12H359.475V549.92C359.475 551.48 359.435 554.72 357.115 557.6C354.275 561.16 349.875 561.6 347.795 561.6C345.075 561.6 340.275 560.84 337.595 557C336.715 555.72 335.915 554.04 335.915 549.72V532.12ZM368.768 561V532.12H379.088C380.568 532.12 383.608 532.12 385.728 533.48C387.888 534.84 388.928 537.04 388.928 539.36C388.928 541.4 388.168 543.2 386.888 544.48C385.648 545.72 384.368 546.12 383.488 546.36C386.248 547.08 387.488 548.32 387.888 551.92C388.288 555.32 388.568 557.8 389.688 561H385.408C384.768 559.08 384.368 555.56 384.088 553.36C383.608 549.16 382.608 547.96 377.768 547.96H372.728V561H368.768ZM372.648 535.48V544.56H378.968C379.408 544.56 381.688 544.56 382.768 543.92C383.328 543.6 384.728 542.56 384.728 540.16C384.728 535.48 380.568 535.48 378.968 535.48H372.648ZM410.941 561V532.12H428.141V535.52H415.021V544.52H427.381V547.88H415.021V561H410.941ZM435.087 532.12H439.087V550C439.087 553.08 439.767 554.36 440.367 555.2C442.167 557.6 444.967 558.04 446.967 558.04C454.767 558.04 454.767 551.92 454.767 549.84V532.12H458.647V549.92C458.647 551.48 458.607 554.72 456.287 557.6C453.447 561.16 449.047 561.6 446.967 561.6C444.247 561.6 439.447 560.84 436.767 557C435.887 555.72 435.087 554.04 435.087 549.72V532.12ZM478.98 561H475.02V535.52H465.34V532.12H488.66V535.52H478.98V561ZM494.673 532.12H498.673V550C498.673 553.08 499.353 554.36 499.953 555.2C501.753 557.6 504.553 558.04 506.553 558.04C514.353 558.04 514.353 551.92 514.353 549.84V532.12H518.233V549.92C518.233 551.48 518.193 554.72 515.873 557.6C513.033 561.16 508.633 561.6 506.553 561.6C503.833 561.6 499.033 560.84 496.353 557C495.473 555.72 494.673 554.04 494.673 549.72V532.12ZM527.526 561V532.12H537.846C539.326 532.12 542.366 532.12 544.486 533.48C546.646 534.84 547.686 537.04 547.686 539.36C547.686 541.4 546.926 543.2 545.646 544.48C544.406 545.72 543.126 546.12 542.246 546.36C545.006 547.08 546.246 548.32 546.646 551.92C547.046 555.32 547.326 557.8 548.446 561H544.166C543.526 559.08 543.126 555.56 542.846 553.36C542.366 549.16 541.366 547.96 536.526 547.96H531.486V561H527.526ZM531.406 535.48V544.56H537.726C538.166 544.56 540.446 544.56 541.526 543.92C542.086 543.6 543.486 542.56 543.486 540.16C543.486 535.48 539.326 535.48 537.726 535.48H531.406ZM555.806 561V532.12H573.926V535.52H559.806V544.52H573.246V547.88H559.806V557.48H574.246V561H555.806Z" fill="white"/>
<path d="M136.32 587.12H140.6L146.84 610.88L153.72 587.12H158.68L165.2 611.08L171.76 587.12H175.68L167.12 616H162.68L156 591.32L148.84 616H144.52L136.32 587.12ZM181.52 616V587.12H185.52V616H181.52ZM205.613 616H201.653V590.52H191.973V587.12H215.293V590.52H205.613V616ZM221.106 587.12H225.106V599.52H238.826V587.12H242.826V616H238.826V602.96H225.106V616H221.106V587.12ZM265.386 616V587.12H282.586V590.52H269.466V599.52H281.826V602.88H269.466V616H265.386ZM288.853 616V587.12H306.973V590.52H292.853V599.52H306.293V602.88H292.853V612.48H307.293V616H288.853ZM315.986 616V587.12H319.946V599.76L331.986 587.12H337.466L324.546 600.04L338.866 616H333.266L319.946 600.68V616H315.986ZM382.451 607.56H386.611C386.691 609.56 386.931 613.28 393.571 613.28C399.571 613.28 400.331 609.56 400.331 608.12C400.331 604.88 397.731 604.24 393.691 603.24C389.291 602.16 387.331 601.68 385.851 600.68C383.491 599.08 382.851 596.92 382.851 595C382.851 589.12 388.411 586.56 393.851 586.56C395.771 586.56 399.651 586.88 401.971 589.4C403.571 591.16 403.651 593.12 403.731 594.32H399.571C399.371 590.72 396.331 589.92 393.491 589.92C389.491 589.92 387.091 591.72 387.091 594.6C387.091 597.16 388.771 598.04 392.291 598.88C399.171 600.64 399.931 600.8 401.611 601.92C404.291 603.68 404.491 606.48 404.491 607.68C404.491 612.8 400.491 616.68 393.091 616.68C390.891 616.68 386.411 616.32 384.131 613.4C382.491 611.28 382.451 608.96 382.451 607.56Z" fill="white"/>
<path d="M341.345 616L352.065 601.72L341.345 587.4H349.145L357.745 599.12H361.425L370.025 587.4H377.825L367.105 601.72L377.825 616H369.985L361.425 604.32H357.745L349.185 616H341.345Z" fill="#0FD6E3"/>
<path d="M227.6 504.4C213.2 504.4 206 495.733 206 478.4C206 472.533 207.067 465.6 209.2 457.6C211.6 449.333 214.533 441.733 218 434.8C214.267 438.267 209.6 442.8 204 448.4C198.4 454 192.933 460.133 187.6 466.8C177.2 479.6 169.2 490.667 163.6 500C160.667 502.133 157.2 503.2 153.2 503.2C146 503.2 142.4 501.467 142.4 498C142.4 495.067 143.867 489.6 146.8 481.6C149.733 473.6 154 463.2 159.6 450.4C168.133 430.933 177.067 412.267 186.4 394.4C196 376.267 206.133 358.933 216.8 342.4C249.067 290.933 275.6 265.2 296.4 265.2C307.867 265.2 313.6 271.733 313.6 284.8C313.6 301.867 299.733 325.733 272 356.4C266.133 362.8 258.133 371.067 248 381.2C238.133 391.067 225.733 402.8 210.8 416.4C207.333 419.6 202.267 424 195.6 429.6C189.2 435.2 182.667 441.333 176 448C175.2 449.067 174.133 451.2 172.8 454.4C171.467 457.6 169.733 461.733 167.6 466.8C163.333 477.2 161.2 483.733 161.2 486.4C161.467 486.667 161.6 487.067 161.6 487.6C164.533 483.867 168.8 478.933 174.4 472.8C180.267 466.4 186.533 459.467 193.2 452C199.333 445.333 205.2 439.067 210.8 433.2C216.4 427.333 220.8 423.333 224 421.2C226.4 419.6 228.533 418.8 230.4 418.8C235.733 418.8 238.4 421.6 238.4 427.2L228.8 448C222.4 461.867 219.2 472.8 219.2 480.8C219.2 490.133 223.733 494.8 232.8 494.8C240.267 494.8 248.267 490.933 256.8 483.2C262.933 477.867 269.2 470.667 275.6 461.6L284.4 449.2C284.933 448.4 285.6 448 286.4 448C287.2 448 287.867 448.4 288.4 449.2C289.2 450 289.333 450.933 288.8 452C288.267 453.6 287.067 455.733 285.2 458.4C276.133 471.733 266.8 482.8 257.2 491.6C247.6 500.133 237.733 504.4 227.6 504.4ZM180.8 434C190.133 427.067 200.933 417.867 213.2 406.4C225.733 394.933 238.933 381.067 252.8 364.8C284 328.8 299.6 303.2 299.6 288C299.6 279.2 296.667 274.8 290.8 274.8C276.4 274.8 256 296.933 229.6 341.2C220.533 356.4 211.6 372 202.8 388C194.267 404 186.933 419.333 180.8 434ZM305.019 504.4C296.219 504.4 288.485 501.867 281.819 496.8C275.152 491.733 271.819 483.2 271.819 471.2C271.819 464 273.419 456.267 276.619 448C279.819 439.467 284.085 431.467 289.419 424C295.019 416.533 301.152 410.4 307.819 405.6C314.485 400.8 321.285 398.4 328.219 398.4C330.885 398.4 333.152 399.333 335.019 401.2C337.152 403.067 338.219 405.867 338.219 409.6C338.219 417.867 331.952 427.867 319.419 439.6C314.352 444.4 309.019 448.667 303.419 452.4C298.085 456.133 293.152 458.8 288.619 460.4C287.552 463.867 287.019 467.867 287.019 472.4C287.019 478.533 288.485 484.133 291.419 489.2C294.352 494.267 299.019 496.8 305.419 496.8C313.419 496.8 320.752 494.533 327.419 490C334.085 485.467 340.219 480 345.819 473.6C351.419 466.933 356.352 460.8 360.619 455.2C362.485 452.533 364.352 451.2 366.219 451.2C367.285 451.2 367.819 451.733 367.819 452.8C367.819 453.333 367.685 454 367.419 454.8C367.152 455.333 366.885 455.867 366.619 456.4C362.085 462.8 356.885 469.733 351.019 477.2C345.152 484.667 338.485 491.067 331.019 496.4C323.552 501.733 314.885 504.4 305.019 504.4ZM291.419 452.4C298.352 449.467 305.552 444.267 313.019 436.8C321.819 428.267 326.219 420.8 326.219 414.4C326.219 411.2 324.619 409.6 321.419 409.6C317.152 409.6 311.285 415.733 303.819 428C297.152 438.133 293.019 446.267 291.419 452.4ZM387.097 507.2C372.697 507.2 363.764 498.533 360.297 481.2C360.03 478.8 359.63 476.4 359.097 474C358.83 471.6 358.697 469.2 358.697 466.8C358.697 454.8 360.83 442.533 365.097 430C369.63 417.467 375.097 405.2 381.497 393.2C387.897 381.2 393.764 370.133 399.097 360C404.164 350.667 409.764 341.467 415.897 332.4C422.297 323.067 428.564 314.533 434.697 306.8C440.83 299.067 446.03 292.8 450.297 288C457.23 280.267 463.897 274.8 470.297 271.6C476.697 268.133 482.43 266.4 487.497 266.4C490.964 266.4 494.03 268.133 496.697 271.6C499.63 275.333 501.097 278.933 501.097 282.4C501.097 300.8 483.897 331.6 449.497 374.8C435.897 391.867 422.83 407.333 410.297 421.2C397.764 434.8 385.63 447.067 373.897 458C373.63 460.133 373.364 462.4 373.097 464.8C373.097 466.933 373.097 469.067 373.097 471.2C373.097 480.267 374.564 487.2 377.497 492C380.43 496.533 385.63 498.8 393.097 498.8C400.564 498.8 409.23 494.533 419.097 486C429.23 477.2 439.63 464.933 450.297 449.2C451.097 447.867 452.03 447.067 453.097 446.8C454.697 446.8 455.497 447.733 455.497 449.6C455.497 450.933 455.23 452 454.697 452.8C450.964 459.2 446.697 465.333 441.897 471.2C437.364 477.067 432.164 482.667 426.297 488C419.63 493.867 412.964 498.533 406.297 502C399.897 505.467 393.497 507.2 387.097 507.2ZM374.697 449.2C382.164 442.8 390.964 433.6 401.097 421.6C411.497 409.333 422.43 395.067 433.897 378.8C459.764 343.067 475.23 317.2 480.297 301.2C482.697 293.467 483.897 287.733 483.897 284C483.897 278.933 482.164 276.4 478.697 276.4C470.964 276.4 461.497 283.867 450.297 298.8C443.897 307.333 436.43 318.267 427.897 331.6C419.364 344.667 411.097 358.933 403.097 374.4C393.764 392.267 387.097 407.067 383.097 418.8C379.364 430.533 376.564 440.667 374.697 449.2ZM473.425 507.2C459.025 507.2 450.092 498.533 446.625 481.2C446.358 478.8 445.958 476.4 445.425 474C445.158 471.6 445.025 469.2 445.025 466.8C445.025 454.8 447.158 442.533 451.425 430C455.958 417.467 461.425 405.2 467.825 393.2C474.225 381.2 480.092 370.133 485.425 360C490.492 350.667 496.092 341.467 502.225 332.4C508.625 323.067 514.892 314.533 521.025 306.8C527.158 299.067 532.358 292.8 536.625 288C543.558 280.267 550.225 274.8 556.625 271.6C563.025 268.133 568.758 266.4 573.825 266.4C577.292 266.4 580.358 268.133 583.025 271.6C585.958 275.333 587.425 278.933 587.425 282.4C587.425 300.8 570.225 331.6 535.825 374.8C522.225 391.867 509.158 407.333 496.625 421.2C484.092 434.8 471.958 447.067 460.225 458C459.958 460.133 459.692 462.4 459.425 464.8C459.425 466.933 459.425 469.067 459.425 471.2C459.425 480.267 460.892 487.2 463.825 492C466.758 496.533 471.958 498.8 479.425 498.8C486.892 498.8 495.558 494.533 505.425 486C515.558 477.2 525.958 464.933 536.625 449.2C537.425 447.867 538.358 447.067 539.425 446.8C541.025 446.8 541.825 447.733 541.825 449.6C541.825 450.933 541.558 452 541.025 452.8C537.292 459.2 533.025 465.333 528.225 471.2C523.692 477.067 518.492 482.667 512.625 488C505.958 493.867 499.292 498.533 492.625 502C486.225 505.467 479.825 507.2 473.425 507.2ZM461.025 449.2C468.492 442.8 477.292 433.6 487.425 421.6C497.825 409.333 508.758 395.067 520.225 378.8C546.092 343.067 561.558 317.2 566.625 301.2C569.025 293.467 570.225 287.733 570.225 284C570.225 278.933 568.492 276.4 565.025 276.4C557.292 276.4 547.825 283.867 536.625 298.8C530.225 307.333 522.758 318.267 514.225 331.6C505.692 344.667 497.425 358.933 489.425 374.4C480.092 392.267 473.425 407.067 469.425 418.8C465.692 430.533 462.892 440.667 461.025 449.2ZM536.553 506.8C527.22 506.8 522.553 501.333 522.553 490.4C522.553 475.2 529.22 457.333 542.553 436.8C542.286 435.467 542.02 434 541.753 432.4C541.753 430.8 541.753 429.333 541.753 428C541.753 418.4 544.953 409.067 551.353 400C557.753 390.933 565.62 386.4 574.953 386.4C582.953 386.4 588.286 389.2 590.953 394.8C593.886 400.4 595.353 406.667 595.353 413.6C595.353 419.467 594.686 425.067 593.353 430.4C592.02 436 590.02 442.267 587.353 449.2C584.686 456.133 581.353 463.467 577.353 471.2C581.353 473.6 585.886 474.8 590.953 474.8C595.486 474.8 599.753 474.267 603.753 473.2C607.753 471.867 611.486 469.467 614.953 466C618.42 462.533 621.086 459.467 622.953 456.8C625.086 454.133 626.02 452.933 625.753 453.2C626.286 452.667 626.82 452.4 627.353 452.4C628.42 452.4 629.22 453.067 629.753 454.4C630.553 455.733 630.42 457.067 629.353 458.4C625.086 464.533 619.486 470 612.553 474.8C605.886 479.333 598.553 481.6 590.553 481.6C584.42 481.6 579.086 480.267 574.553 477.6C562.286 497.067 549.62 506.8 536.553 506.8ZM572.153 467.6C575.62 459.067 578.286 451.733 580.153 445.6C582.02 439.467 582.953 433.733 582.953 428.4V425.2C582.953 418 581.753 411.333 579.353 405.2C576.953 398.8 573.486 395.6 568.953 395.6C562.82 395.6 558.02 399.333 554.553 406.8C552.153 411.867 550.953 417.467 550.953 423.6V426C555.22 420.933 559.486 418.4 563.753 418.4C567.753 418.4 570.686 419.733 572.553 422.4C573.353 423.467 573.753 424.4 573.753 425.2C573.753 426.8 572.153 427.6 568.953 427.6C564.153 427.6 559.086 432.667 553.753 442.8C557.486 453.2 563.62 461.467 572.153 467.6ZM542.953 497.2C546.42 497.2 551.353 494 557.753 487.6C560.42 484.933 562.686 482.4 564.553 480C566.42 477.6 567.886 475.333 568.953 473.2C559.886 467.067 553.22 460.267 548.953 452.8C540.953 469.6 536.953 481.733 536.953 489.2C536.953 494.533 538.953 497.2 542.953 497.2Z" fill="white"/>
<path d="M1530.55 638.229H783.67C780.796 638.229 778.04 637.087 776.008 635.055C773.975 633.023 772.834 630.267 772.834 627.393C772.834 624.519 773.975 621.763 776.008 619.731C778.04 617.698 780.796 616.557 783.67 616.557H1530.55C1533.42 616.557 1536.18 617.698 1538.21 619.731C1540.24 621.763 1541.39 624.519 1541.39 627.393C1541.39 630.267 1540.24 633.023 1538.21 635.055C1536.18 637.087 1533.42 638.229 1530.55 638.229Z" fill="#C9C9C9"/>
<path d="M924.213 526.24C912.699 526.24 903.333 516.873 903.333 505.359C903.333 493.845 912.7 484.479 924.213 484.479H1042.25V526.24H924.213Z" fill="#CECECE"/>
<path d="M1049.08 533.464H924.213C908.691 533.464 896.109 520.881 896.109 505.36C896.109 489.838 908.692 477.256 924.213 477.256H1049.08V533.464Z" fill="white"/>
<path d="M916.577 498.883H1042.25M916.577 511.634H1042.25M924.213 526.24C912.699 526.24 903.333 516.873 903.333 505.359C903.333 493.845 912.7 484.479 924.213 484.479H1042.25V526.24H924.213Z" stroke="#1F3969" stroke-width="4" stroke-miterlimit="10" stroke-linecap="round" stroke-linejoin="round"/>
<path d="M924.213 526.24C912.699 526.24 903.333 516.873 903.333 505.359C903.333 493.845 912.7 484.479 924.213 484.479H1044.27L1049.08 477.255H924.213C908.691 477.255 896.109 489.838 896.109 505.359C896.109 520.881 908.692 533.463 924.213 533.463H1049.08L1044.27 526.239L924.213 526.24Z" fill="#FF3E3E"/>
<path d="M924.213 526.24C912.699 526.24 903.333 516.873 903.333 505.359C903.333 493.845 912.7 484.479 924.213 484.479H1044.27L1049.08 477.255H924.213C908.691 477.255 896.109 489.838 896.109 505.359C896.109 520.881 908.692 533.463 924.213 533.463H1049.08L1044.27 526.239L924.213 526.24Z" stroke="#1F3969" stroke-width="4" stroke-miterlimit="10" stroke-linecap="round" stroke-linejoin="round"/>
<path opacity="0.28" d="M1000.09 477.255H1022.24V533.464H1000.09V477.255Z" fill="#1F3969" stroke="#1F3969" stroke-width="4" stroke-miterlimit="10" stroke-linecap="round" stroke-linejoin="round"/>
<path d="M1036.24 579.887H807.595C805.436 579.887 803.365 579.029 801.839 577.502C800.312 575.976 799.454 573.905 799.454 571.746V541.604C799.454 539.445 800.312 537.375 801.839 535.848C803.365 534.322 805.436 533.464 807.595 533.464H1036.24C1038.4 533.464 1040.47 534.322 1041.99 535.848C1043.52 537.375 1044.38 539.445 1044.38 541.604V571.745C1044.38 572.814 1044.17 573.873 1043.76 574.861C1043.35 575.848 1042.75 576.746 1041.99 577.502C1041.24 578.258 1040.34 578.858 1039.35 579.267C1038.37 579.676 1037.31 579.887 1036.24 579.887Z" fill="#50B56F"/>
<path d="M1036.24 579.887H807.595C805.436 579.887 803.365 579.029 801.839 577.502C800.312 575.976 799.454 573.905 799.454 571.746V541.604C799.454 539.445 800.312 537.375 801.839 535.848C803.365 534.322 805.436 533.464 807.595 533.464H1036.24C1038.4 533.464 1040.47 534.322 1041.99 535.848C1043.52 537.375 1044.38 539.445 1044.38 541.604V571.745C1044.38 572.814 1044.17 573.873 1043.76 574.861C1043.35 575.848 1042.75 576.746 1041.99 577.502C1041.24 578.258 1040.34 578.858 1039.35 579.267C1038.37 579.676 1037.31 579.887 1036.24 579.887Z" stroke="#1F3969" stroke-width="4" stroke-miterlimit="10" stroke-linecap="round" stroke-linejoin="round"/>
<path opacity="0.28" d="M1036.24 533.464H1000.09V551.519C1000.09 562.864 1009.29 572.061 1020.63 572.061H1044.36C1044.37 571.955 1044.38 571.852 1044.38 571.745V541.604C1044.38 539.445 1043.52 537.375 1041.99 535.848C1040.47 534.322 1038.4 533.464 1036.24 533.464Z" fill="#1F3969" stroke="#1F3969" stroke-width="4" stroke-miterlimit="10" stroke-linecap="round" stroke-linejoin="round"/>
<path d="M1100.6 589.207H835.78C837.324 593.12 838.225 597.821 838.225 602.882C838.225 607.942 837.324 612.644 835.78 616.557H1100.6C1099.05 612.644 1098.15 607.942 1098.15 602.882C1098.15 597.821 1099.05 593.12 1100.6 589.207Z" fill="#CECECE"/>
<path d="M828.608 581.93H1107.78V589.207H828.608V581.93Z" fill="#5F5AFF"/>
<path d="M828.608 581.93H1107.78V589.207H828.608V581.93Z" stroke="#1F3969" stroke-width="4" stroke-miterlimit="10" stroke-linecap="round" stroke-linejoin="round"/>
<path d="M828.608 616.557H1107.78V623.834H828.608V616.557Z" fill="#F6F9FD"/>
<path d="M828.608 616.557H1107.78V623.834H828.608V616.557Z" fill="#5F5AFF"/>
<path d="M828.608 616.557H1107.78V623.834H828.608V616.557Z" stroke="#1F3969" stroke-width="4" stroke-miterlimit="10" stroke-linecap="round" stroke-linejoin="round"/>
<path d="M1246.57 598.13L1242.94 557.613H1183.46L1179.83 598.13C1178.99 607.54 1173.32 616.557 1164.44 623.746L1164.43 623.833H1261.97L1261.96 623.746C1253.08 616.557 1247.41 607.54 1246.57 598.13Z" fill="#BFCFE2"/>
<path opacity="0.28" d="M1183.46 557.613L1181.28 581.93H1245.12L1242.94 557.613H1183.46Z" fill="#1F3969" stroke="#1F3969" stroke-width="4" stroke-miterlimit="10" stroke-linecap="round" stroke-linejoin="round"/>
<path d="M1246.57 598.13L1242.94 557.613H1183.46L1179.83 598.13C1178.99 607.54 1173.32 616.557 1164.44 623.746L1164.43 623.833H1261.97L1261.96 623.746C1253.08 616.557 1247.41 607.54 1246.57 598.13Z" stroke="#1F3969" stroke-width="4" stroke-miterlimit="10" stroke-linecap="round" stroke-linejoin="round"/>
<path d="M1403.43 563.633H1022.97C1014.99 563.633 1008.52 557.164 1008.52 549.185V301.161C1008.52 293.182 1014.99 286.713 1022.97 286.713H1403.43C1411.41 286.713 1417.88 293.182 1417.88 301.161V549.185C1417.88 557.165 1411.41 563.633 1403.43 563.633Z" fill="white"/>
<g filter="url(#filter0_d_442_12)">
<path d="M1403.43 563.633H1022.97C1014.99 563.633 1008.52 557.164 1008.52 549.185V301.161C1008.52 293.182 1014.99 286.713 1022.97 286.713H1403.43C1411.41 286.713 1417.88 293.182 1417.88 301.161V549.185C1417.88 557.165 1411.41 563.633 1403.43 563.633Z" fill="#BFCFE2"/>
</g>
<path d="M1403.43 563.633H1022.97C1014.99 563.633 1008.52 557.164 1008.52 549.185V301.161C1008.52 293.182 1014.99 286.713 1022.97 286.713H1403.43C1411.41 286.713 1417.88 293.182 1417.88 301.161V549.185C1417.88 557.165 1411.41 563.633 1403.43 563.633Z" stroke="#1F3969" stroke-width="4" stroke-miterlimit="10" stroke-linecap="round" stroke-linejoin="round"/>
<path d="M1397.41 307.181V517.388H1028.99V307.181H1397.41Z" fill="#F6F9FD"/>
<path opacity="0.28" d="M1042.25 286.713V453.579C1042.25 456.133 1043.26 458.583 1045.07 460.389C1046.88 462.196 1049.33 463.211 1051.88 463.211H1279.53C1282.08 463.211 1284.53 462.196 1286.34 460.389C1288.14 458.583 1289.16 456.133 1289.16 453.579V286.713H1042.25Z" fill="#1F3969" stroke="#1F3969" stroke-width="4" stroke-miterlimit="10" stroke-linecap="round" stroke-linejoin="round"/>
<path d="M1397.41 307.181V517.388H1028.99V307.181H1397.41Z" stroke="#1F3969" stroke-width="4" stroke-miterlimit="10" stroke-linecap="round" stroke-linejoin="round"/>
<path d="M1197.01 540.398H1229.39" stroke="#1F3969" stroke-width="4" stroke-miterlimit="10" stroke-linecap="round" stroke-linejoin="round"/>
<path d="M1290.36 449.966H1062.72C1060.16 449.966 1057.71 448.952 1055.91 447.145C1054.1 445.339 1053.09 442.889 1053.09 440.334V261.799C1053.09 259.245 1054.1 256.795 1055.91 254.988C1057.71 253.182 1060.16 252.167 1062.72 252.167H1290.36C1292.91 252.167 1295.36 253.182 1297.17 254.988C1298.98 256.795 1299.99 259.245 1299.99 261.799V440.336C1299.99 441.6 1299.74 442.853 1299.26 444.021C1298.78 445.19 1298.07 446.252 1297.17 447.146C1296.28 448.04 1295.22 448.75 1294.05 449.234C1292.88 449.718 1291.63 449.967 1290.36 449.966Z" fill="#2D425E"/>
<path d="M1299.99 275.59H1053.09V261.799C1053.09 259.245 1054.1 256.795 1055.91 254.988C1057.71 253.182 1060.16 252.167 1062.72 252.167H1290.36C1292.91 252.167 1295.36 253.182 1297.17 254.988C1298.98 256.795 1299.99 259.245 1299.99 261.799L1299.99 275.59Z" stroke="#1F3969" stroke-width="4" stroke-miterlimit="10" stroke-linecap="round" stroke-linejoin="round"/>
<path d="M1299.99 280.177H1053.09V261.799C1053.09 259.245 1054.1 256.795 1055.91 254.988C1057.71 253.182 1060.16 252.167 1062.72 252.167H1290.36C1292.91 252.167 1295.36 253.182 1297.17 254.988C1298.98 256.795 1299.99 259.245 1299.99 261.799L1299.99 280.177Z" fill="#D0DDF0"/>
<path d="M1299.99 280.177H1053.09V261.799C1053.09 259.245 1054.1 256.795 1055.91 254.988C1057.71 253.182 1060.16 252.167 1062.72 252.167H1290.36C1292.91 252.167 1295.36 253.182 1297.17 254.988C1298.98 256.795 1299.99 259.245 1299.99 261.799L1299.99 280.177Z" stroke="#1F3969" stroke-width="4" stroke-miterlimit="10" stroke-linecap="round" stroke-linejoin="round"/>
<path d="M1299.99 280.177H1053.09V261.799C1053.09 259.245 1054.1 256.795 1055.91 254.988C1057.71 253.182 1060.16 252.167 1062.72 252.167H1290.36C1292.91 252.167 1295.36 253.182 1297.17 254.988C1298.98 256.795 1299.99 259.245 1299.99 261.799L1299.99 280.177Z" stroke="#1F3969" stroke-width="4" stroke-miterlimit="10" stroke-linecap="round" stroke-linejoin="round"/>
<path d="M1290.36 449.966H1062.72C1060.16 449.966 1057.71 448.952 1055.91 447.145C1054.1 445.339 1053.09 442.889 1053.09 440.334V261.799C1053.09 259.245 1054.1 256.795 1055.91 254.988C1057.71 253.182 1060.16 252.167 1062.72 252.167H1290.36C1292.91 252.167 1295.36 253.182 1297.17 254.988C1298.98 256.795 1299.99 259.245 1299.99 261.799V440.336C1299.99 441.6 1299.74 442.853 1299.26 444.021C1298.78 445.19 1298.07 446.252 1297.17 447.146C1296.28 448.04 1295.22 448.75 1294.05 449.234C1292.88 449.718 1291.63 449.967 1290.36 449.966Z" stroke="#1F3969" stroke-width="4" stroke-miterlimit="10" stroke-linecap="round" stroke-linejoin="round"/>
<path opacity="0.28" d="M1409.18 492.595H1269.5C1266.94 492.595 1264.49 491.581 1262.69 489.774C1260.88 487.968 1259.87 485.518 1259.87 482.963V334.938C1259.87 332.383 1260.88 329.933 1262.69 328.127C1264.49 326.32 1266.94 325.306 1269.5 325.306H1409.18C1411.74 325.306 1414.19 326.32 1415.99 328.127C1417.8 329.933 1418.81 332.383 1418.81 334.938V482.963C1418.81 485.518 1417.8 487.968 1415.99 489.774C1414.19 491.581 1411.74 492.595 1409.18 492.595Z" fill="#1F3969" stroke="#1F3969" stroke-width="4" stroke-miterlimit="10" stroke-linecap="round" stroke-linejoin="round"/>
<path d="M1418.81 484.167H1279.13C1276.58 484.167 1274.13 483.153 1272.32 481.346C1270.51 479.54 1269.5 477.09 1269.5 474.535V326.51C1269.5 323.955 1270.51 321.505 1272.32 319.699C1274.13 317.892 1276.58 316.878 1279.13 316.878H1418.81C1421.37 316.878 1423.82 317.892 1425.62 319.699C1427.43 321.505 1428.45 323.955 1428.45 326.51V474.535C1428.45 477.09 1427.43 479.54 1425.62 481.346C1423.82 483.153 1421.37 484.167 1418.81 484.167Z" fill="#2AA1FF"/>
<path d="M1418.81 484.167H1279.13C1276.58 484.167 1274.13 483.153 1272.32 481.346C1270.51 479.54 1269.5 477.09 1269.5 474.535V326.51C1269.5 323.955 1270.51 321.505 1272.32 319.699C1274.13 317.892 1276.58 316.878 1279.13 316.878H1418.81C1421.37 316.878 1423.82 317.892 1425.62 319.699C1427.43 321.505 1428.45 323.955 1428.45 326.51V474.535C1428.45 477.09 1427.43 479.54 1425.62 481.346C1423.82 483.153 1421.37 484.167 1418.81 484.167Z" stroke="#1F3969" stroke-width="4" stroke-miterlimit="10" stroke-linecap="round" stroke-linejoin="round"/>
<path opacity="0.34" d="M1398.03 362.717H1299.82C1298.17 362.717 1296.59 362.062 1295.42 360.895C1294.25 359.729 1293.6 358.146 1293.6 356.496V347.105C1293.6 345.455 1294.25 343.873 1295.42 342.706C1296.59 341.54 1298.17 340.884 1299.82 340.884H1398.03C1399.68 340.884 1401.26 341.54 1402.43 342.706C1403.59 343.873 1404.25 345.455 1404.25 347.105V356.496C1404.25 358.146 1403.59 359.729 1402.43 360.895C1401.26 362.062 1399.68 362.717 1398.03 362.717Z" stroke="white" stroke-width="2" stroke-miterlimit="10" stroke-linecap="round" stroke-linejoin="round"/>
<g opacity="0.34">
<path d="M1354.87 398.003H1299.92C1299.1 398.003 1298.29 397.842 1297.54 397.53C1296.78 397.217 1296.09 396.759 1295.52 396.181C1294.94 395.603 1294.48 394.918 1294.17 394.163C1293.86 393.408 1293.7 392.599 1293.7 391.782V382.391C1293.7 381.574 1293.86 380.765 1294.17 380.01C1294.48 379.255 1294.94 378.57 1295.52 377.992C1296.09 377.414 1296.78 376.956 1297.54 376.643C1298.29 376.331 1299.1 376.17 1299.92 376.17H1354.87C1356.52 376.17 1358.1 376.825 1359.27 377.992C1360.44 379.159 1361.09 380.741 1361.09 382.391V391.782C1361.09 393.432 1360.44 395.014 1359.27 396.181C1358.1 397.348 1356.52 398.003 1354.87 398.003ZM1398.13 398.003H1376.87C1375.22 398.003 1373.64 397.348 1372.47 396.181C1371.3 395.014 1370.65 393.432 1370.65 391.782V382.391C1370.65 380.741 1371.3 379.159 1372.47 377.992C1373.64 376.825 1375.22 376.17 1376.87 376.17H1398.13C1399.78 376.17 1401.36 376.825 1402.52 377.992C1403.69 379.159 1404.35 380.741 1404.35 382.391V391.782C1404.35 393.432 1403.69 395.014 1402.52 396.181C1401.36 397.348 1399.78 398.003 1398.13 398.003Z" stroke="white" stroke-width="2" stroke-miterlimit="10" stroke-linecap="round" stroke-linejoin="round"/>
</g>
<path d="M1293.6 434.665H1404.25M1293.6 447.657H1404.25M1293.6 460.648H1361" stroke="white" stroke-width="2" stroke-miterlimit="10" stroke-linecap="round" stroke-linejoin="round"/>
<path d="M1077.25 270.988C1079.91 270.988 1082.07 268.832 1082.07 266.172C1082.07 263.513 1079.91 261.356 1077.25 261.356C1074.59 261.356 1072.44 263.513 1072.44 266.172C1072.44 268.832 1074.59 270.988 1077.25 270.988Z" fill="#1F3969"/>
<path d="M1093.97 270.988C1096.63 270.988 1098.79 268.832 1098.79 266.172C1098.79 263.513 1096.63 261.356 1093.97 261.356C1091.31 261.356 1089.15 263.513 1089.15 266.172C1089.15 268.832 1091.31 270.988 1093.97 270.988Z" fill="#1F3969"/>
<path d="M1110.69 270.988C1113.35 270.988 1115.51 268.832 1115.51 266.172C1115.51 263.513 1113.35 261.356 1110.69 261.356C1108.03 261.356 1105.87 263.513 1105.87 266.172C1105.87 268.832 1108.03 270.988 1110.69 270.988Z" fill="#1F3969"/>
<path d="M1194.93 302.404H1210.5" stroke="white" stroke-width="4" stroke-miterlimit="10" stroke-linecap="round" stroke-linejoin="round"/>
<path d="M1115.51 302.404H1183.38" stroke="#7BFFA0" stroke-width="4" stroke-miterlimit="10" stroke-linecap="round" stroke-linejoin="round"/>
<path d="M1082.07 302.404H1105.87M1113.1 421.069H1164.94" stroke="#9169FF" stroke-width="4" stroke-miterlimit="10" stroke-linecap="round" stroke-linejoin="round"/>
<path d="M1082.07 421.069H1098.79" stroke="#7BFFA0" stroke-width="4" stroke-miterlimit="10" stroke-linecap="round" stroke-linejoin="round"/>
<path d="M1183.38 317.238H1193.03" stroke="white" stroke-width="4" stroke-miterlimit="10" stroke-linecap="round" stroke-linejoin="round"/>
<path d="M1138.99 317.238H1171.77" stroke="#9169FF" stroke-width="4" stroke-miterlimit="10" stroke-linecap="round" stroke-linejoin="round"/>
<path d="M1093.97 317.238H1127.37" stroke="#FFC47D" stroke-width="4" stroke-miterlimit="10" stroke-linecap="round" stroke-linejoin="round"/>
<path d="M1145.68 332.071H1174.38" stroke="white" stroke-width="4" stroke-miterlimit="10" stroke-linecap="round" stroke-linejoin="round"/>
<path d="M1109.48 332.071H1136.55" stroke="#FF5757" stroke-width="4" stroke-miterlimit="10" stroke-linecap="round" stroke-linejoin="round"/>
<path d="M1149.5 346.904H1155.45" stroke="white" stroke-width="4" stroke-miterlimit="10" stroke-linecap="round" stroke-linejoin="round"/>
<path d="M1125.64 346.904H1138.99" stroke="#9169FF" stroke-width="4" stroke-miterlimit="10" stroke-linecap="round" stroke-linejoin="round"/>
<path d="M1093.97 346.904H1115.51" stroke="#7BFFA0" stroke-width="4" stroke-miterlimit="10" stroke-linecap="round" stroke-linejoin="round"/>
<path d="M1140.21 361.738H1178.61" stroke="#FFC47D" stroke-width="4" stroke-miterlimit="10" stroke-linecap="round" stroke-linejoin="round"/>
<path d="M1093.97 361.738H1128.44" stroke="#FF5757" stroke-width="4" stroke-miterlimit="10" stroke-linecap="round" stroke-linejoin="round"/>
<path d="M1184.63 376.571H1205.51" stroke="#9169FF" stroke-width="4" stroke-miterlimit="10" stroke-linecap="round" stroke-linejoin="round"/>
<path d="M1140.21 376.571H1173.62" stroke="#FF5757" stroke-width="4" stroke-miterlimit="10" stroke-linecap="round" stroke-linejoin="round"/>
<path d="M1109.48 376.571H1128.44" stroke="#7BFFA0" stroke-width="4" stroke-miterlimit="10" stroke-linecap="round" stroke-linejoin="round"/>
<path d="M1155.38 391.404H1173.62" stroke="white" stroke-width="4" stroke-miterlimit="10" stroke-linecap="round" stroke-linejoin="round"/>
<path d="M1109.48 391.404H1142.89" stroke="#9169FF" stroke-width="4" stroke-miterlimit="10" stroke-linecap="round" stroke-linejoin="round"/>
<path d="M1202.71 406.236H1223.53" stroke="white" stroke-width="4" stroke-miterlimit="10" stroke-linecap="round" stroke-linejoin="round"/>
<path d="M1138.99 406.236H1191.45" stroke="#FFC47D" stroke-width="4" stroke-miterlimit="10" stroke-linecap="round" stroke-linejoin="round"/>
<path d="M1093.97 406.236H1127.37" stroke="white" stroke-width="4" stroke-miterlimit="10" stroke-linecap="round" stroke-linejoin="round"/>
<path d="M838.734 597.558H1098.15M838.734 607.209H1098.15M1100.6 589.207H835.78C837.324 593.12 838.225 597.821 838.225 602.882C838.225 607.942 837.324 612.644 835.78 616.557H1100.6C1099.05 612.644 1098.15 607.942 1098.15 602.882C1098.15 597.821 1099.05 593.12 1100.6 589.207Z" stroke="#1F3969" stroke-width="4" stroke-miterlimit="10" stroke-linecap="round" stroke-linejoin="round"/>
<path d="M1445.18 492.495L1456.92 491.119L1467.1 577.995L1455.36 579.37L1445.18 492.495Z" fill="#FFA364"/>
<path d="M1445.17 492.494L1456.91 491.118L1457.94 499.955L1446.21 501.331L1445.17 492.494Z" fill="#2AA1FF"/>
<path d="M1445.17 492.494L1456.91 491.118L1457.94 499.955L1446.21 501.331L1445.17 492.494Z" stroke="#1F3969" stroke-width="4" stroke-miterlimit="10" stroke-linecap="round" stroke-linejoin="round"/>
<path d="M1445.18 492.495L1456.92 491.119L1467.1 577.995L1455.36 579.37L1445.18 492.495Z" stroke="#1F3969" stroke-width="4" stroke-miterlimit="10" stroke-linecap="round" stroke-linejoin="round"/>
<path d="M1477.42 507.559L1489.17 508.836L1479.71 595.794L1467.97 594.517L1477.42 507.559Z" fill="#FF5252"/>
<path d="M1477.42 507.559L1489.17 508.836L1479.71 595.794L1467.97 594.517L1477.42 507.559Z" stroke="#1F3969" stroke-width="4" stroke-miterlimit="10" stroke-linecap="round" stroke-linejoin="round"/>
<path d="M1477.42 507.559L1489.17 508.836L1488.21 517.682L1476.46 516.404L1477.42 507.559Z" fill="#2D425E"/>
<path d="M1477.42 507.559L1489.17 508.836L1488.21 517.682L1476.46 516.404L1477.42 507.559Z" stroke="#1F3969" stroke-width="4" stroke-miterlimit="10" stroke-linecap="round" stroke-linejoin="round"/>
<path d="M1496.33 624.106H1449.06L1441.37 551.646H1504.02L1496.33 624.106Z" fill="#6567C3"/>
<path d="M1441.37 551.646L1441.51 552.976H1489.24L1481.69 624.106H1496.33L1504.02 551.646H1441.37Z" fill="#6567C3"/>
<path d="M1496.33 624.106H1449.06L1441.37 551.646H1504.02L1496.33 624.106Z" stroke="#1F3969" stroke-width="4" stroke-miterlimit="10" stroke-linecap="round" stroke-linejoin="round"/>
<path d="M877.088 544.896H880.288V554.816H891.264V544.896H894.464V568H891.264V557.568H880.288V568H877.088V544.896ZM910.55 568H907.382V547.616H899.638V544.896H918.294V547.616H910.55V568ZM923.008 568V544.896H928.672L935.2 563.936L941.888 544.896H947.168V568H944.032V547.2L936.448 568H933.408L926.112 547.328V568H923.008ZM954.923 568V544.896H958.091V565.152H968.843V568H954.923Z" fill="white"/>
</g>
<defs>
<filter id="filter0_d_442_12" x="1008.52" y="286.713" width="418.36" height="285.92" filterUnits="userSpaceOnUse" color-interpolation-filters="sRGB">
<feFlood flood-opacity="0" result="BackgroundImageFix"/>
<feColorMatrix in="SourceAlpha" type="matrix" values="0 0 0 0 0 0 0 0 0 0 0 0 0 0 0 0 0 0 127 0" result="hardAlpha"/>
<feOffset dx="5" dy="5"/>
<feGaussianBlur stdDeviation="2"/>
<feComposite in2="hardAlpha" operator="out"/>
<feColorMatrix type="matrix" values="0 0 0 0 0.315 0 0 0 0 0.315 0 0 0 0 0.315 0 0 0 1 0"/>
<feBlend mode="normal" in2="BackgroundImageFix" result="effect1_dropShadow_442_12"/>
<feBlend mode="normal" in="SourceGraphic" in2="effect1_dropShadow_442_12" result="shape"/>
</filter>
<clipPath id="clip0_442_12">
<rect width="1725" height="1001" fill="white"/>
</clipPath>
</defs>
</svg>
